<?xml version="1.0" standalone="no"?>
<!DOCTYPE svg PUBLIC "-//W3C//DTD SVG 1.1//EN" "http://www.w3.org/Graphics/SVG/1.1/DTD/svg11.dtd" >
<svg xmlns="http://www.w3.org/2000/svg">
<metadata>Generated by IcoMoon</metadata>
<defs>
<font id="icomoon" horiz-adv-x="1024">
<font-face units-per-em="1024" ascent="960" descent="-64" />
<missing-glyph horiz-adv-x="1024" />
<glyph unicode="&#x20;" horiz-adv-x="512" d="" />
<glyph unicode="&#x31;" d="M512 21.333c235.639 0 426.667 191.027 426.667 426.667 0 235.642-191.027 426.667-426.667 426.667-235.642 0-426.667-191.025-426.667-426.667 0-235.639 191.025-426.667 426.667-426.667z" />
<glyph unicode="&#x32;" d="M682.667 480h-138.667v138.667c0 17.493-14.507 32-32 32s-32-14.507-32-32v-138.667h-138.667c-17.493 0-32-14.507-32-32s14.507-32 32-32h138.667v-138.667c0-17.493 14.507-32 32-32s32 14.507 32 32v138.667h138.667c17.493 0 32 14.507 32 32s-14.507 32-32 32z" />
<glyph unicode="&#xe900;" glyph-name="data1" d="M853.333 330.667c-64.853 0-117.333 52.48-117.333 117.333s52.48 117.333 117.333 117.333c64.853 0 117.333-52.48 117.333-117.333s-52.48-117.333-117.333-117.333zM853.333 501.333c-29.44 0-53.333-23.893-53.333-53.333s23.893-53.333 53.333-53.333c29.44 0 53.333 23.893 53.333 53.333s-23.893 53.333-53.333 53.333zM853.333 672c-64.853 0-117.333 52.48-117.333 117.333s52.48 117.333 117.333 117.333c64.853 0 117.333-52.48 117.333-117.333s-52.48-117.333-117.333-117.333zM853.333 842.667c-29.44 0-53.333-23.893-53.333-53.333s23.893-53.333 53.333-53.333c29.44 0 53.333 23.893 53.333 53.333s-23.893 53.333-53.333 53.333zM853.333-10.667c-64.853 0-117.333 52.48-117.333 117.333s52.48 117.333 117.333 117.333c64.853 0 117.333-52.48 117.333-117.333s-52.48-117.333-117.333-117.333zM853.333 160c-29.44 0-53.333-23.893-53.333-53.333s23.893-53.333 53.333-53.333c29.44 0 53.333 23.893 53.333 53.333s-23.893 53.333-53.333 53.333zM170.667 330.667c-64.853 0-117.333 52.48-117.333 117.333s52.48 117.333 117.333 117.333c64.853 0 117.333-52.48 117.333-117.333s-52.48-117.333-117.333-117.333zM170.667 501.333c-29.44 0-53.333-23.893-53.333-53.333s23.893-53.333 53.333-53.333c29.44 0 53.333 23.893 53.333 53.333s-23.893 53.333-53.333 53.333zM768 416h-512c-17.493 0-32 14.507-32 32s14.507 32 32 32h512c17.493 0 32-14.507 32-32s-14.507-32-32-32zM768 74.667h-170.667c-103.253 0-160 56.747-160 160v426.667c0 103.253 56.747 160 160 160h170.667c17.493 0 32-14.507 32-32s-14.507-32-32-32h-170.667c-67.413 0-96-28.587-96-96v-426.667c0-67.413 28.587-96 96-96h170.667c17.493 0 32-14.507 32-32s-14.507-32-32-32z" />
<glyph unicode="&#xe901;" d="M298.667 586.667h-128c-64.853 0-117.333 52.48-117.333 117.333v85.333c0 64.853 52.48 117.333 117.333 117.333h128c64.853 0 117.333-52.48 117.333-117.333v-85.333c0-64.853-52.48-117.333-117.333-117.333zM170.667 842.667c-29.44 0-53.333-23.893-53.333-53.333v-85.333c0-29.44 23.893-53.333 53.333-53.333h128c29.44 0 53.333 23.893 53.333 53.333v85.333c0 29.44-23.893 53.333-53.333 53.333h-128z" />
<glyph unicode="&#xe902;" glyph-name="calendar-remove" d="M341.333 714.667c-17.493 0-32 14.507-32 32v128c0 17.493 14.507 32 32 32s32-14.507 32-32v-128c0-17.493-14.507-32-32-32zM682.667 714.667c-17.493 0-32 14.507-32 32v128c0 17.493 14.507 32 32 32s32-14.507 32-32v-128c0-17.493-14.507-32-32-32zM362.667 341.338c-11.093 0-22.187 4.693-30.294 12.373-1.707 2.133-3.84 4.267-5.12 6.4-1.707 2.56-2.987 5.12-3.84 7.68-1.28 2.56-2.133 5.116-2.56 7.676-0.427 2.987-0.853 5.978-0.853 8.538 0 11.093 4.693 22.182 12.373 30.289 15.787 15.787 44.374 15.787 60.588 0 7.68-8.107 12.373-19.196 12.373-30.289 0-2.56-0.427-5.551-0.853-8.538-0.427-2.56-1.28-5.116-2.56-7.676-0.853-2.56-2.133-5.12-3.84-7.68-1.707-2.133-3.413-4.267-5.12-6.4-8.107-7.68-19.2-12.373-30.294-12.373zM512 341.338c-5.547 0-11.093 1.28-16.213 3.413-5.547 2.133-10.24 5.12-14.080 8.96-1.707 2.133-3.84 4.267-5.12 6.4-1.707 2.56-2.987 5.12-3.84 7.68-1.28 2.56-2.133 5.12-2.56 7.68-0.427 2.987-0.853 5.973-0.853 8.533 0 11.093 4.693 22.187 12.373 30.293 3.84 3.84 8.533 6.827 14.080 8.96 15.36 6.827 34.56 2.987 46.507-8.96 7.68-8.107 12.373-19.2 12.373-30.293 0-2.56-0.427-5.547-0.853-8.533-0.427-2.56-1.28-5.12-2.56-7.68-0.853-2.56-2.133-5.12-3.84-7.68-1.707-2.133-3.413-4.267-5.12-6.4-8.107-7.68-19.2-12.373-30.293-12.373zM362.667 192c-11.52 0-22.187 4.693-30.294 12.373-7.68 8.107-12.373 19.2-12.373 30.293s4.693 22.187 12.373 30.293c2.133 1.707 4.267 3.84 6.4 5.12 2.56 1.707 5.12 2.987 7.68 3.84 2.56 1.28 5.12 2.133 7.68 2.56 8.533 1.707 17.067 0.853 24.747-2.56 5.547-2.133 9.814-5.12 14.080-8.96 7.68-8.107 12.373-19.2 12.373-30.293s-4.693-22.187-12.373-30.293c-4.267-3.84-8.534-6.827-14.080-8.96-5.12-2.133-10.667-3.413-16.213-3.413zM874.667 540.167h-725.333c-17.493 0-32 14.507-32 32s14.507 32 32 32h725.333c17.493 0 32-14.507 32-32s-14.507-32-32-32zM768-53.333c-111.787 0-202.667 90.88-202.667 202.667s90.88 202.667 202.667 202.667c111.787 0 202.667-90.88 202.667-202.667s-90.88-202.667-202.667-202.667zM768 288c-76.373 0-138.667-62.293-138.667-138.667s62.293-138.667 138.667-138.667c76.373 0 138.667 62.293 138.667 138.667s-62.293 138.667-138.667 138.667zM813.67 69.978c-8.107 0-16.213 2.982-22.613 9.382l-90.027 90.031c-12.373 12.373-12.373 32.853 0 45.227s32.853 12.373 45.227 0l90.027-90.027c12.373-12.373 12.373-32.858 0-45.231-6.4-6.4-14.507-9.382-22.613-9.382zM722.351 68.693c-8.107 0-16.213 2.987-22.613 9.387-12.373 12.373-12.373 32.853 0 45.227l90.027 90.027c12.373 12.373 32.853 12.373 45.227 0s12.373-32.853 0-45.227l-90.027-90.027c-6.4-5.973-14.507-9.387-22.613-9.387zM655.787-10.667h-314.453c-155.733 0-245.333 89.6-245.333 245.333v362.667c0 155.733 89.6 245.333 245.333 245.333h341.333c155.733 0 245.333-89.6 245.333-245.333v-335.36c0-13.227-8.107-25.173-20.907-29.867-12.373-4.693-26.453-1.28-35.413 8.96-26.453 29.867-64.427 46.933-104.107 46.933-76.373 0-138.667-62.293-138.667-138.667 0-25.173 6.827-49.92 20.053-71.253 7.253-12.8 16.64-23.467 26.88-32.427 10.24-8.533 14.080-22.613 9.387-35.413-3.84-12.373-15.787-20.907-29.44-20.907zM341.333 778.667c-122.027 0-181.333-59.307-181.333-181.333v-362.667c0-122.027 59.307-181.333 181.333-181.333h248.32c-15.787 29.013-24.32 61.867-24.32 96 0 111.787 90.88 202.667 202.667 202.667 33.707 0 66.987-8.533 96-24.32v269.653c0 122.027-59.307 181.333-181.333 181.333h-341.333z" />
<glyph unicode="&#xe903;" glyph-name="clipboard-text" d="M640 407.458h-298.667c-17.493 0-32 14.507-32 32s14.507 32 32 32h298.667c17.493 0 32-14.507 32-32s-14.507-32-32-32zM528.213 236.791h-186.88c-17.493 0-32 14.507-32 32s14.507 32 32 32h186.88c17.493 0 32-14.507 32-32s-14.507-32-32-32zM597.333 672h-170.667c-40.96 0-117.333 0-117.333 117.333s76.373 117.333 117.333 117.333h170.667c40.96 0 117.333 0 117.333-117.333 0-40.96 0-117.333-117.333-117.333zM426.667 842.667c-42.24 0-53.333 0-53.333-53.333s11.093-53.333 53.333-53.333h170.667c53.333 0 53.333 11.093 53.333 53.333 0 53.333-11.093 53.333-53.333 53.333h-170.667zM640-10.662h-256c-239.787 0-288 110.080-288 288v255.999c0 194.56 70.4 277.76 243.627 286.72 17.067 0.853 32.853-12.373 33.707-30.293s-12.8-32.427-30.293-33.28c-121.173-6.827-183.040-43.093-183.040-223.147v-255.999c0-157.867 31.147-224 224-224h256c192.853 0 224 66.133 224 224v255.999c0 180.053-61.867 216.32-183.040 223.147-17.493 0.853-31.147 16.213-30.293 33.707s16.213 31.147 33.707 30.293c173.227-9.387 243.627-92.587 243.627-286.72v-255.999c0-178.347-48.213-288.427-288-288.427z" />
<glyph unicode="&#xe904;" glyph-name="send-2" d="M606.758 37.116c-50.347 0-121.6 35.413-177.92 204.8l-30.722 92.16-92.16 30.72c-168.96 56.32-204.373 127.573-204.373 177.921 0 49.92 35.413 121.6 204.373 178.347l362.242 120.747c90.453 30.293 165.973 21.333 212.48-24.747s55.467-122.027 25.173-212.48l-120.747-362.241c-56.747-169.813-128-205.227-178.347-205.227zM326.010 660.050c-118.613-39.68-160.853-86.613-160.853-117.333s42.24-77.655 160.853-116.908l107.522-35.84c9.387-2.987 17.067-10.667 20.053-20.053l35.84-107.52c39.253-118.613 86.613-160.853 117.333-160.853s77.653 42.24 117.333 160.853l120.747 362.241c21.76 65.707 17.92 119.467-9.813 147.2s-81.493 31.147-146.773 9.387l-362.242-121.173zM431.394 345.6c-8.108 0-16.214 2.987-22.614 9.387-12.373 12.373-12.373 32.853 0 45.227l152.748 153.173c12.373 12.373 32.853 12.373 45.227 0s12.373-32.853 0-45.227l-152.747-153.173c-5.973-6.4-14.507-9.387-22.613-9.387z" />
<glyph unicode="&#xe905;" glyph-name="card-tick" d="M576 565.333h-490.667c-17.493 0-32 14.507-32 32s14.507 32 32 32h490.667c17.493 0 32-14.507 32-32s-14.507-32-32-32zM341.333 224h-85.333c-17.493 0-32 14.507-32 32s14.507 32 32 32h85.333c17.493 0 32-14.507 32-32s-14.507-32-32-32zM618.667 224h-170.667c-17.493 0-32 14.507-32 32s14.507 32 32 32h170.667c17.493 0 32-14.507 32-32s-14.507-32-32-32zM749.227 53.333h-474.453c-169.813 0-221.44 51.2-221.44 219.307v350.72c0 168.107 51.627 219.307 221.44 219.307h301.227c17.493 0 32-14.507 32-32s-14.507-32-32-32h-301.227c-133.973 0-157.44-23.040-157.44-155.307v-350.293c0-132.267 23.467-155.307 157.44-155.307h474.027c133.973 0 157.44 23.040 157.44 155.307v216.747c0 17.493 14.507 32 32 32s32-14.507 32-32v-216.747c0.427-168.533-51.2-219.733-221.013-219.733zM767.979 608.003c-8.107 0-16.213 2.987-22.613 9.387l-64 64c-12.373 12.373-12.373 32.853 0 45.227s32.853 12.373 45.227 0l41.387-41.387 148.053 148.053c12.373 12.373 32.853 12.373 45.227 0s12.373-32.853 0-45.227l-170.667-170.667c-6.4-6.4-14.507-9.387-22.613-9.387z" />
<glyph unicode="&#xe906;" glyph-name="forward-10-seconds" d="M596.467 737.292c-9.387 0-18.773 4.265-24.747 11.945l-84.48 105.388c-11.093 13.653-8.96 34.133 5.12 44.8 13.653 11.093 33.707 8.96 44.8-5.12l84.48-105.388c11.093-13.653 8.96-34.132-5.12-44.799-5.973-4.267-13.227-6.826-20.053-6.826zM511.974-10.658c-226.56 0-411.308 184.324-411.308 411.311 0 226.985 184.32 411.305 411.308 411.305 29.44 0 59.307-3.414 91.733-11.094 17.067-3.84 28.16-21.334 23.893-38.401-3.84-17.067-20.907-28.16-38.4-23.893-27.307 6.4-52.907 9.388-77.227 9.388-191.574 0-347.308-155.734-347.308-347.305 0-191.573 155.734-347.311 347.308-347.311s347.307 155.738 347.307 347.311c0 74.24-24.32 145.917-70.4 207.357-10.667 14.080-7.68 34.133 6.4 44.8s34.133 7.682 44.8-6.398c54.613-72.533 83.2-157.439 83.2-245.759 0-226.987-184.747-411.311-411.307-411.311zM407.021 248.742c-17.493 0-32 14.507-32 32v144.64l-8.107-8.96c-11.947-13.227-32-14.080-45.227-2.56-13.227 11.947-14.080 32-2.56 45.227l64 71.253c8.96 9.814 23.040 13.228 35.413 8.535s20.478-16.641 20.478-29.868v-228.267c0-17.92-14.078-32-31.998-32zM597.333 248.734c-64.853 0-117.333 52.48-117.333 117.333v57.6c0 64.853 52.48 117.333 117.333 117.333s117.333-52.48 117.333-117.333v-57.6c0-64.853-52.48-117.333-117.333-117.333zM597.333 476.574c-29.44 0-53.333-23.893-53.333-53.333v-57.6c0-29.44 23.893-53.333 53.333-53.333s53.333 23.893 53.333 53.333v57.6c0 29.44-23.893 53.333-53.333 53.333z" />
<glyph unicode="&#xe907;" glyph-name="direct-normal" d="M640-10.667h-256c-231.68 0-330.667 98.987-330.667 330.667v256c0 231.68 98.987 330.667 330.667 330.667h256c231.68 0 330.667-98.987 330.667-330.667v-256c0-231.68-98.987-330.667-330.667-330.667zM384 842.667c-196.693 0-266.667-69.973-266.667-266.667v-256c0-196.693 69.973-266.667 266.667-266.667h256c196.693 0 266.667 69.973 266.667 266.667v256c0 196.693-69.973 266.667-266.667 266.667h-256zM587.102 202.667h-150.613c-46.932 0-84.052 23.040-104.959 64.853l-37.973 76.373c-8.96 18.347-27.307 29.44-47.787 29.44h-160.853c-17.493 0-32 14.507-32 32s14.933 32 32.427 32h160.427c44.8 0 84.907-24.747 104.96-64.853l37.973-76.373c9.813-19.627 25.6-29.44 47.785-29.44h150.613c20.48 0 38.827 11.093 47.787 29.44l37.973 76.373c20.053 40.107 60.16 64.853 104.96 64.853h159.573c17.493 0 32-14.507 32-32s-14.507-32-32-32h-159.573c-20.48 0-38.827-11.093-47.787-29.44l-37.973-76.373c-20.053-40.107-60.16-64.853-104.96-64.853z" />
<glyph unicode="&#xe908;" glyph-name="weight" d="M597.333-10.667h-170.667c-231.68 0-330.667 98.987-330.667 330.667v256c0 231.68 98.987 330.667 330.667 330.667h170.667c231.68 0 330.667-98.987 330.667-330.667v-256c0-231.68-98.987-330.667-330.667-330.667zM426.667 842.667c-196.693 0-266.667-69.973-266.667-266.667v-256c0-196.693 69.973-266.667 266.667-266.667h170.667c196.693 0 266.667 69.973 266.667 266.667v256c0 196.693-69.973 266.667-266.667 266.667h-170.667zM642.97 424.956c-7.68 0-15.36 2.987-21.333 8.107-62.293 55.467-157.013 55.467-219.305 0-6.827-6.4-16.214-8.96-26.027-7.68-9.387 1.28-17.493 6.827-22.613 14.933l-93.013 149.333c-8.107 13.227-5.547 30.293 5.973 40.96 139.947 124.16 350.719 124.16 490.666 0 11.52-10.24 14.080-27.733 5.973-40.96l-93.013-149.333c-5.12-8.107-13.227-13.227-22.613-14.933-1.707 0-3.413-0.427-4.693-0.427zM511.983 538.876c42.667 0 84.907-11.947 122.027-35.413l59.733 96c-107.947 80.213-256 80.213-363.946 0l59.734-96c37.545 23.893 79.785 35.413 122.452 35.413z" />
<glyph unicode="&#xe909;" d="M887.467 629.333h-153.6c-46.080 0-83.2 37.547-83.2 83.2v68.266c0 46.080 37.547 83.2 83.2 83.2h153.6c46.080 0 83.2-37.547 83.2-83.2v-68.266c0-46.080-37.12-83.2-83.2-83.2zM733.867 800c-10.24 0-19.2-8.96-19.2-19.2v-68.266c0-10.24 8.96-19.2 19.2-19.2h153.6c10.24 0 19.2 8.96 19.2 19.2v68.266c0 10.24-8.96 19.2-19.2 19.2h-153.6z" />
<glyph unicode="&#xe90a;" d="M887.467 309.333h-153.6c-46.080 0-83.2 37.547-83.2 83.2v68.267c0 46.080 37.547 83.2 83.2 83.2h153.6c46.080 0 83.2-37.547 83.2-83.2v-68.267c0-46.080-37.12-83.2-83.2-83.2zM733.867 480c-10.24 0-19.2-8.96-19.2-19.2v-68.267c0-10.24 8.96-19.2 19.2-19.2h153.6c10.24 0 19.2 8.96 19.2 19.2v68.267c0 10.24-8.96 19.2-19.2 19.2h-153.6z" />
<glyph unicode="&#xe90b;" d="M682.667 714.667h-298.667c-17.493 0-32 14.507-32 32s14.507 32 32 32h298.667c17.493 0 32-14.507 32-32s-14.507-32-32-32z" />
<glyph unicode="&#xe90c;" glyph-name="candle-2" d="M938.667 181.333h-298.667c-17.493 0-32 14.507-32 32s14.507 32 32 32h298.667c17.493 0 32-14.507 32-32s-14.507-32-32-32zM213.333 181.333h-128c-17.493 0-32 14.507-32 32s14.507 32 32 32h128c17.493 0 32-14.507 32-32s-14.507-32-32-32zM938.667 650.667h-128c-17.493 0-32 14.507-32 32s14.507 32 32 32h128c17.493 0 32-14.507 32-32s-14.507-32-32-32zM384 650.667h-298.667c-17.493 0-32 14.507-32 32s14.507 32 32 32h298.667c17.493 0 32-14.507 32-32s-14.507-32-32-32zM554.667 53.333h-256c-73.387 0-117.333 43.947-117.333 117.333v85.333c0 73.387 43.947 117.333 117.333 117.333h256c73.387 0 117.333-43.947 117.333-117.333v-85.333c0-73.387-43.947-117.333-117.333-117.333zM298.667 309.333c-37.973 0-53.333-15.36-53.333-53.333v-85.333c0-37.973 15.36-53.333 53.333-53.333h256c37.973 0 53.333 15.36 53.333 53.333v85.333c0 37.973-15.36 53.333-53.333 53.333h-256zM725.333 522.667h-256c-73.387 0-117.333 43.947-117.333 117.333v85.333c0 73.387 43.947 117.333 117.333 117.333h256c73.387 0 117.333-43.947 117.333-117.333v-85.333c0-73.387-43.947-117.333-117.333-117.333zM469.333 778.667c-37.973 0-53.333-15.36-53.333-53.333v-85.333c0-37.973 15.36-53.333 53.333-53.333h256c37.973 0 53.333 15.36 53.333 53.333v85.333c0 37.973-15.36 53.333-53.333 53.333h-256z" />
<glyph unicode="&#xe90d;" glyph-name="moon" d="M531.644-10.671c-7.253 0-14.507 0-21.76 0.427-238.932 10.667-438.612 203.093-455.252 437.76-14.507 201.386 101.973 389.546 289.707 468.48 53.333 22.186 81.493 5.12 93.438-7.253 11.947-11.947 28.587-39.68 6.4-90.453-19.625-45.227-29.438-93.44-29.012-142.933 0.853-189.013 157.865-349.44 349.438-357.12 27.733-1.28 55.040 0.853 81.493 5.547 56.32 10.24 79.787-12.373 88.747-26.88s19.2-45.653-14.933-91.733c-90.453-123.733-234.24-195.84-388.267-195.84zM118.205 432.209c14.507-203.093 187.733-369.493 394.238-378.453 140.373-6.827 273.493 57.173 355.413 168.96 6.4 8.96 9.387 15.36 10.667 18.773-3.84 0.427-10.667 0.853-21.333-1.28-31.147-5.547-63.573-7.68-95.573-6.4-225.28 8.96-409.598 197.973-410.878 420.693 0 58.88 11.52 115.627 34.987 168.96 4.267 9.387 5.12 15.787 5.547 19.2-3.84 0-10.667-0.853-21.76-5.547-162.56-68.267-263.253-231.253-251.307-404.906z" />
<glyph unicode="&#xe90e;" glyph-name="gallery-export" d="M384 501.333c-64.853 0-117.333 52.48-117.333 117.333s52.48 117.333 117.333 117.333c64.853 0 117.333-52.48 117.333-117.333s-52.48-117.333-117.333-117.333zM384 672c-29.44 0-53.333-23.893-53.333-53.333s23.893-53.333 53.333-53.333c29.44 0 53.333 23.893 53.333 53.333s-23.893 53.333-53.333 53.333zM640-10.667h-256c-231.68 0-330.667 98.987-330.667 330.667v256c0 231.68 98.987 330.667 330.667 330.667h170.667c17.493 0 32-14.507 32-32s-14.507-32-32-32h-170.667c-196.693 0-266.667-69.973-266.667-266.667v-256c0-196.693 69.973-266.667 266.667-266.667h256c196.693 0 266.667 69.973 266.667 266.667v213.333c0 17.493 14.507 32 32 32s32-14.507 32-32v-213.333c0-231.68-98.987-330.667-330.667-330.667zM768 586.669c-17.493 0-32 14.507-32 32v256c0 12.8 7.68 24.747 19.627 29.44s25.6 2.133 34.987-6.827l85.333-85.333c12.373-12.373 12.373-32.853 0-45.227s-32.853-12.373-45.227 0l-30.72 30.72v-178.773c0-17.493-14.507-32-32-32zM682.645 757.336c-8.107 0-16.213 2.987-22.613 9.387-12.373 12.373-12.373 32.853 0 45.227l85.333 85.333c12.373 12.373 32.853 12.373 45.227 0s12.373-32.853 0-45.227l-85.333-85.333c-6.4-6.4-14.507-9.387-22.613-9.387zM113.891 119.462c-10.24 0-20.48 5.12-26.453 14.080-9.813 14.507-5.973 34.56 8.533 44.373l210.347 141.227c46.080 30.72 109.653 27.307 151.466-8.107l14.080-12.373c21.333-18.347 57.6-18.347 78.507 0l177.493 152.32c45.227 38.827 116.48 38.827 162.133 0l69.547-59.733c13.227-11.52 14.933-31.573 3.413-45.227-11.52-13.227-32-14.933-45.227-3.413l-69.547 59.733c-21.333 18.347-57.173 18.347-78.507 0l-177.493-152.32c-45.227-38.827-116.48-38.827-162.133 0l-14.079 12.373c-19.627 16.64-52.053 18.347-73.813 3.413l-209.92-141.227c-5.973-3.413-12.373-5.12-18.347-5.12z" />
<glyph unicode="&#xe90f;" glyph-name="element-plus" d="M843.52 480h-172.373c-85.76 0-127.147 41.813-127.147 127.147v172.373c0 85.76 41.813 127.147 127.147 127.147h172.373c85.76 0 127.147-41.813 127.147-127.147v-172.373c0-85.333-41.813-127.147-127.147-127.147zM671.147 842.667c-50.347 0-63.147-12.8-63.147-63.147v-172.373c0-50.347 12.8-63.147 63.147-63.147h172.373c50.347 0 63.147 12.8 63.147 63.147v172.373c0 50.347-12.8 63.147-63.147 63.147h-172.373zM352.853 480h-172.373c-85.76 0-127.147 37.973-127.147 116.48v193.707c0 78.507 41.813 116.48 127.147 116.48h172.373c85.76 0 127.147-37.973 127.147-116.48v-193.28c0-78.933-41.813-116.907-127.147-116.907zM180.48 842.667c-57.173 0-63.147-16.213-63.147-52.48v-193.28c0-36.693 5.973-52.48 63.147-52.48h172.373c57.173 0 63.147 16.213 63.147 52.48v193.28c0 36.693-5.973 52.48-63.147 52.48h-172.373zM352.853-10.667h-172.373c-85.76 0-127.147 41.813-127.147 127.147v172.373c0 85.76 41.813 127.147 127.147 127.147h172.373c85.76 0 127.147-41.813 127.147-127.147v-172.373c0-85.333-41.813-127.147-127.147-127.147zM180.48 352c-50.347 0-63.147-12.8-63.147-63.147v-172.373c0-50.347 12.8-63.147 63.147-63.147h172.373c50.347 0 63.147 12.8 63.147 63.147v172.373c0 50.347-12.8 63.147-63.147 63.147h-172.373zM874.667 181.333h-256c-17.493 0-32 14.507-32 32s14.507 32 32 32h256c17.493 0 32-14.507 32-32s-14.507-32-32-32zM746.667 53.333c-17.493 0-32 14.507-32 32v256c0 17.493 14.507 32 32 32s32-14.507 32-32v-256c0-17.493-14.507-32-32-32z" />
<glyph unicode="&#xe910;" glyph-name="scanning" d="M85.333 544c-17.493 0-32 14.507-32 32v106.667c0 123.733 100.693 224 224 224h106.667c17.493 0 32-14.507 32-32s-14.507-32-32-32h-106.667c-88.32 0-160-71.68-160-160v-106.667c0-17.493-14.507-32-32-32zM938.667 544c-17.493 0-32 14.507-32 32v106.667c0 88.32-71.68 160-160 160h-106.667c-17.493 0-32 14.507-32 32s14.507 32 32 32h106.667c123.307 0 224-100.267 224-224v-106.667c0-17.493-14.507-32-32-32zM746.667-10.667h-64c-17.493 0-32 14.507-32 32s14.507 32 32 32h64c88.32 0 160 71.68 160 160v64c0 17.493 14.507 32 32 32s32-14.507 32-32v-64c0-123.733-100.693-224-224-224zM384-10.667h-106.667c-123.307 0-224 100.267-224 224v106.667c0 17.493 14.507 32 32 32s32-14.507 32-32v-106.667c0-88.32 71.68-160 160-160h106.667c17.493 0 32-14.507 32-32s-14.507-32-32-32zM362.667 458.667c-76.373 0-138.667 62.293-138.667 138.667s62.293 138.667 138.667 138.667c76.373 0 138.667-62.293 138.667-138.667s-62.293-138.667-138.667-138.667zM362.667 672c-40.96 0-74.667-33.707-74.667-74.667s33.707-74.667 74.667-74.667c40.96 0 74.667 33.707 74.667 74.667s-33.707 74.667-74.667 74.667zM320 160c-52.907 0-96 43.093-96 96s43.093 96 96 96c52.907 0 96-43.093 96-96s-43.093-96-96-96zM320 288c-17.493 0-32-14.507-32-32s14.507-32 32-32c17.493 0 32 14.507 32 32s-14.507 32-32 32zM704 544c-52.907 0-96 43.093-96 96s43.093 96 96 96c52.907 0 96-43.093 96-96s-43.093-96-96-96zM704 672c-17.493 0-32-14.507-32-32s14.507-32 32-32c17.493 0 32 14.507 32 32s-14.507 32-32 32zM661.333 160c-76.373 0-138.667 62.293-138.667 138.667s62.293 138.667 138.667 138.667c76.373 0 138.667-62.293 138.667-138.667s-62.293-138.667-138.667-138.667zM661.333 373.333c-40.96 0-74.667-33.707-74.667-74.667s33.707-74.667 74.667-74.667c40.96 0 74.667 33.707 74.667 74.667s-33.707 74.667-74.667 74.667z" />
<glyph unicode="&#xe911;" glyph-name="document-normal" d="M597.333 672h-170.667c-40.96 0-117.333 0-117.333 117.333s76.373 117.333 117.333 117.333h170.667c40.96 0 117.333 0 117.333-117.333 0-40.96 0-117.333-117.333-117.333zM426.667 842.667c-42.24 0-53.333 0-53.333-53.333s11.093-53.333 53.333-53.333h170.667c53.333 0 53.333 11.093 53.333 53.333 0 53.333-11.093 53.333-53.333 53.333h-170.667zM640-10.662h-256c-239.787 0-288 110.080-288 288v255.999c0 194.56 70.4 277.76 243.627 286.72 17.493 0.853 32.853-12.373 33.707-30.293s-12.8-32.427-30.293-33.28c-121.173-6.827-183.040-43.093-183.040-223.147v-255.999c0-157.867 31.147-224 224-224h256c192.853 0 224 66.133 224 224v255.999c0 180.053-61.867 216.32-183.040 223.147-17.493 0.853-31.147 16.213-30.293 33.707s16.213 31.147 33.707 30.293c173.227-9.387 243.627-92.587 243.627-286.72v-255.999c0-178.347-48.213-288.427-288-288.427z" />
<glyph unicode="&#xe912;" glyph-name="d-cube-scan" d="M938.667 544c-17.493 0-32 14.507-32 32v85.333c0 110.080-71.253 181.333-181.333 181.333h-426.667c-110.080 0-181.333-71.253-181.333-181.333v-85.333c0-17.493-14.507-32-32-32s-32 14.507-32 32v85.333c0 146.773 98.56 245.333 245.333 245.333h426.667c146.773 0 245.333-98.56 245.333-245.333v-85.333c0-17.493-14.507-32-32-32zM725.333-10.667h-426.667c-146.773 0-245.333 98.56-245.333 245.333v85.333c0 17.493 14.507 32 32 32s32-14.507 32-32v-85.333c0-110.080 71.253-181.333 181.333-181.333h426.667c110.080 0 181.333 71.253 181.333 181.333v85.333c0 17.493 14.507 32 32 32s32-14.507 32-32v-85.333c0-146.773-98.56-245.333-245.333-245.333zM512.026 401.92c-5.547 0-11.093 1.284-16.213 4.271l-226.133 130.559c-15.36 8.96-20.48 28.585-11.52 43.945s28.587 20.481 43.52 11.521l209.92-121.599 208.64 120.745c15.36 8.96 34.987 3.415 43.52-11.518 8.96-15.36 3.413-34.988-11.52-43.948l-224.427-129.705c-4.693-2.56-10.24-4.271-15.787-4.271zM512 169.809c-17.493 0-32 14.507-32 32v232.107c0 17.493 14.507 32 32 32s32-14.507 32-32v-232.107c0-17.493-14.507-32-32-32zM512.009 159.996c-24.747 0-49.067 5.551-68.693 16.218l-136.532 75.942c-40.96 22.613-72.533 76.8-72.533 123.733v144.644c0 46.505 32 100.69 72.533 123.73l136.532 75.948c39.253 21.76 98.133 21.76 137.387 0l136.533-75.948c40.96-22.613 72.533-76.798 72.533-123.73v-144.644c0-46.507-32-100.693-72.533-123.733l-136.533-75.942c-19.627-10.667-43.947-16.218-68.693-16.218zM474.462 663.891l-136.532-75.945c-20.907-11.52-39.68-43.948-39.68-67.412v-144.644c0-23.893 18.773-55.893 39.68-67.413l136.532-75.942c19.627-10.667 55.467-10.667 75.093 0l136.533 75.942c20.907 11.52 39.68 43.947 39.68 67.413v144.644c0 23.892-18.773 55.892-39.68 67.412l-136.533 75.945c-19.627 10.667-55.467 10.667-75.093 0z" />
<glyph unicode="&#xe913;" glyph-name="minus" d="M768 416h-512c-17.493 0-32 14.507-32 32s14.507 32 32 32h512c17.493 0 32-14.507 32-32s-14.507-32-32-32z" />
<glyph unicode="&#xe914;" glyph-name="monitor" d="M749.227 193.28h-474.453c-169.813 0-221.44 51.627-221.44 221.44v270.507c0 169.813 51.627 221.44 221.44 221.44h474.027c169.813 0 221.44-51.627 221.44-221.44v-270.080c0.427-170.24-51.2-221.867-221.013-221.867zM274.773 842.667c-133.973 0-157.44-23.467-157.44-157.44v-270.080c0-133.973 23.467-157.44 157.44-157.44h474.027c133.973 0 157.44 23.467 157.44 157.44v270.080c0 133.973-23.467 157.44-157.44 157.44h-474.027zM512-10.667c-17.493 0-32 14.507-32 32v203.947c0 17.493 14.507 32 32 32s32-14.507 32-32v-203.947c0-17.493-14.507-32-32-32zM938.667 373.333h-853.333c-17.493 0-32 14.507-32 32s14.507 32 32 32h853.333c17.493 0 32-14.507 32-32s-14.507-32-32-32zM704-10.667h-384c-17.493 0-32 14.507-32 32s14.507 32 32 32h384c17.493 0 32-14.507 32-32s-14.507-32-32-32z" />
<glyph unicode="&#xe915;" glyph-name="timer" d="M650.231-10.667h-276.479c-80.64 0-139.52 33.707-162.133 91.733-23.467 60.587-1.707 135.68 54.613 186.453l197.972 180.48-197.972 180.48c-56.32 50.773-78.080 125.867-54.613 186.453 22.613 58.453 81.493 91.733 162.133 91.733h276.479c80.64 0 139.52-33.707 162.133-91.733 23.467-60.587 1.707-135.68-54.613-186.453l-197.973-180.48 198.4-180.48c55.893-50.773 78.080-125.867 54.613-186.453-23.040-58.027-81.92-91.733-162.56-91.733zM511.991 404.907l-202.666-184.32c-35.84-32.853-51.627-80.64-37.973-116.053 12.8-32.853 49.067-51.2 102.4-51.2h276.479c53.333 0 89.6 17.92 102.4 51.2 13.653 35.413-1.707 83.2-37.973 116.053l-202.667 184.32zM373.752 842.667c-53.333 0-89.6-17.92-102.4-51.2-13.653-35.413 1.707-83.2 37.973-116.053l202.666-184.32 202.667 184.32c35.84 32.853 51.627 80.64 37.973 116.053-12.8 32.853-49.067 51.2-102.4 51.2h-276.479z" />
<glyph unicode="&#xe916;" glyph-name="arrow-down-1" d="M511.979 243.196c-29.867 0-59.733 11.52-82.347 34.133l-278.185 278.185c-12.373 12.373-12.373 32.853 0 45.227s32.853 12.373 45.227 0l278.185-278.185c20.48-20.48 53.76-20.48 74.24 0l278.187 278.185c12.373 12.373 32.853 12.373 45.227 0s12.373-32.853 0-45.227l-278.187-278.185c-22.613-22.613-52.48-34.133-82.347-34.133z" />
<glyph unicode="&#xe917;" glyph-name="archive-1" d="M511.991 521.382c-43.52 0-87.042 7.68-128.428 22.615-16.64 5.973-25.173 24.32-19.2 40.96 6.4 16.64 24.747 25.173 41.387 19.2 68.695-24.747 144.215-24.747 212.908 0 16.64 5.973 34.987-2.56 40.96-19.2s-2.56-34.987-19.2-40.96c-41.387-14.935-84.907-22.615-128.427-22.615zM813.666-10.667c-21.76 0-45.653 6.4-68.693 19.627l-208.213 115.627c-12.373 6.827-36.693 6.827-49.067 0l-208.213-115.627c-42.24-23.467-85.333-26.027-118.187-6.4-32.853 19.2-51.627 58.027-51.627 106.24v601.173c0 108.373 88.32 196.693 196.693 196.693h411.733c108.373 0 196.693-88.32 196.693-196.693v-601.173c0-48.213-18.773-87.040-51.627-106.24-14.933-8.96-32-13.227-49.493-13.227zM512.013 193.707c20.053 0 39.68-4.267 55.467-13.227l208.213-115.627c21.76-12.373 41.813-14.933 54.613-7.253s20.053 26.027 20.053 51.2v601.173c0 72.96-59.733 132.693-132.693 132.693h-411.306c-72.96 0-132.693-59.733-132.693-132.693v-601.173c0-25.173 7.253-43.947 20.053-51.2s32.427-5.12 54.613 7.253l208.213 115.627c15.787 8.96 35.413 13.227 55.467 13.227z" />
<glyph unicode="&#xe918;" glyph-name="copy-success" d="M729.6 906.667h-179.2c-166.827 0-241.067-74.24-241.067-241.067v-46.933c0-17.493 14.507-32 32-32h132.267c132.267 0 177.067-44.8 177.067-177.067v-132.267c0-17.493 14.507-32 32-32h46.933c166.827 0 241.067 74.24 241.067 241.067v179.2c0 166.827-74.24 241.067-241.067 241.067zM373.333 650.667v14.933c0 132.267 44.8 177.067 177.067 177.067h179.2c132.267 0 177.067-44.8 177.067-177.067v-179.2c0-132.267-44.8-177.067-177.067-177.067h-14.933v100.267c0 166.827-74.24 241.067-241.067 241.067h-100.267zM473.6 650.667h-179.2c-166.827 0-241.067-74.24-241.067-241.067v-179.2c0-166.827 74.24-241.067 241.067-241.067h179.2c166.827 0 241.067 74.24 241.067 241.067v179.2c0 166.827-74.24 241.067-241.067 241.067zM294.4 53.333c-132.267 0-177.067 44.8-177.067 177.067v179.2c0 132.267 44.8 177.067 177.067 177.067h179.2c132.267 0 177.067-44.8 177.067-177.067v-179.2c0-132.267-44.8-177.067-177.067-177.067h-179.2zM342.593 204.8c-8.107 0-16.213 2.987-22.613 9.387l-83.2 83.2c-12.373 12.373-12.373 32.853 0 45.227s32.853 12.373 45.227 0l60.587-60.587 143.359 143.36c12.373 12.373 32.853 12.373 45.227 0s12.373-32.853 0-45.227l-166.399-165.973c-5.973-5.973-14.080-9.387-22.187-9.387z" />
<glyph unicode="&#xe919;" glyph-name="folder" d="M725.333-10.667h-426.667c-188.16 0-245.333 57.173-245.333 245.333v426.667c0 188.16 57.173 245.333 245.333 245.333h64c74.667 0 98.133-24.32 128-64l64-85.333c14.080-18.773 16.213-21.333 42.667-21.333h128c188.16 0 245.333-57.173 245.333-245.333v-256c0-188.16-57.173-245.333-245.333-245.333zM298.667 842.667c-152.32 0-181.333-29.013-181.333-181.333v-426.667c0-152.32 29.013-181.333 181.333-181.333h426.667c152.32 0 181.333 29.013 181.333 181.333v256c0 152.32-29.013 181.333-181.333 181.333h-128c-54.613 0-72.533 18.773-93.867 46.933l-64 85.333c-22.187 29.44-28.587 38.4-76.8 38.4h-64z" />
<glyph unicode="&#xe91a;" glyph-name="cards" d="M810.667 389.978h-725.333c-17.493 0-32 14.507-32 32s14.507 32 32 32h725.333c17.493 0 32-14.507 32-32s-14.507-32-32-32zM649.387 32.009h-402.772c-146.347 0-193.281 46.507-193.281 191.147v298.24c0 114.773 26.028 182.613 158.294 190.293 11.093 0.427 22.614 0.854 34.987 0.854h402.772c146.347 0 193.28-46.507 193.28-191.147v-305.067c-1.707-139.52-48.64-184.32-193.28-184.32zM246.615 648.542c-11.52 0-22.187-0.427-32-0.854-76.373-4.693-97.281-20.906-97.281-126.293v-298.24c0-109.227 17.921-127.147 129.281-127.147h402.772c110.080 0 128 17.067 129.28 120.747v304.64c0 109.227-17.92 127.147-129.28 127.147h-402.772zM810.667 184.32c-8.107 0-16.213 2.987-21.76 8.533-6.4 5.973-10.24 14.507-10.24 23.467v305.067c0 109.227-17.92 127.147-129.28 127.147h-402.772c-11.52 0-22.187-0.427-32-0.853-8.533-0.427-17.069 2.987-23.469 8.96s-9.812 14.507-9.812 23.467c1.707 139.093 48.641 183.893 193.281 183.893h402.772c146.347 0 193.28-46.507 193.28-191.147v-298.24c0-114.773-26.027-182.613-158.293-190.293-0.427 0-1.28 0-1.707 0zM246.615 712.533h402.772c146.347 0 193.28-46.507 193.28-191.147v-269.653c49.493 8.96 64 34.56 64 122.88v298.24c0 109.227-17.92 127.147-129.28 127.147h-402.772c-97.28 0-122.453-13.227-128-87.467zM296.972 168.102h-73.388c-17.493 0-32 14.507-32 32s14.507 32 32 32h73.388c17.493 0 32-14.507 32-32s-14.080-32-32-32zM535.441 168.102h-146.774c-17.493 0-32 14.507-32 32s14.507 32 32 32h146.774c17.493 0 32-14.507 32-32s-14.080-32-32-32z" />
<glyph unicode="&#xe91b;" glyph-name="bezier" d="M128 544c-64.853 0-117.333 52.48-117.333 117.333s52.48 117.333 117.333 117.333c64.853 0 117.333-52.48 117.333-117.333s-52.48-117.333-117.333-117.333zM128 714.667c-29.44 0-53.333-23.893-53.333-53.333s23.893-53.333 53.333-53.333c29.44 0 53.333 23.893 53.333 53.333s-23.893 53.333-53.333 53.333zM896 544c-64.853 0-117.333 52.48-117.333 117.333s52.48 117.333 117.333 117.333c64.853 0 117.333-52.48 117.333-117.333s-52.48-117.333-117.333-117.333zM896 714.667c-29.44 0-53.333-23.893-53.333-53.333s23.893-53.333 53.333-53.333c29.44 0 53.333 23.893 53.333 53.333s-23.893 53.333-53.333 53.333zM810.667 629.333h-170.667c-17.493 0-32 14.507-32 32s14.507 32 32 32h170.667c17.493 0 32-14.507 32-32s-14.507-32-32-32zM384 629.333h-170.667c-17.493 0-32 14.507-32 32s14.507 32 32 32h170.667c17.493 0 32-14.507 32-32s-14.507-32-32-32zM256 74.667h-85.333c-52.907 0-96 43.093-96 96v85.333c0 52.907 43.093 96 96 96h85.333c52.907 0 96-43.093 96-96v-85.333c0-38.4-22.613-72.533-57.6-87.467-11.52-5.547-24.747-8.533-38.4-8.533zM170.667 288c-17.493 0-32-14.507-32-32v-85.333c0-17.493 14.507-32 32-32h85.333c4.267 0 8.107 0.849 12.373 2.982 12.373 5.12 19.627 16.644 19.627 29.018v85.333c0 17.493-14.507 32-32 32h-85.333zM853.333 74.667h-85.333c-13.653 0-26.88 2.987-39.68 8.96-33.707 14.080-56.32 48.64-56.32 87.040v85.333c0 52.907 43.093 96 96 96h85.333c52.907 0 96-43.093 96-96v-85.333c0-52.907-43.093-96-96-96zM768 288c-17.493 0-32-14.507-32-32v-85.333c0-12.373 7.253-23.893 18.347-28.587 5.547-2.56 9.387-3.413 13.653-3.413h85.333c17.493 0 32 14.507 32 32v85.333c0 17.493-14.507 32-32 32h-85.333zM576 501.333h-128c-52.907 0-96 43.093-96 96v128c0 52.907 43.093 96 96 96h128c52.907 0 96-43.093 96-96v-128c0-52.907-43.093-96-96-96zM448 757.333c-17.493 0-32-14.507-32-32v-128c0-17.493 14.507-32 32-32h128c17.493 0 32 14.507 32 32v128c0 17.493-14.507 32-32 32h-128zM809.417 288.009c-1.28 0-2.56 0-3.84 0-17.493 2.133-30.293 17.92-28.16 35.413 0.853 5.973 0.853 11.52 0.853 17.493 0 110.933-60.16 213.336-153.173 260.27-15.787 8.107-22.187 27.305-14.080 43.091s27.307 22.187 43.093 14.080c114.347-58.027 188.16-182.615 188.16-317.441 0-8.533-0.427-16.636-1.707-25.169-1.28-15.787-14.933-27.738-31.147-27.738zM214.613 288c-16.213 0-29.867 11.947-31.573 28.16-0.853 8.533-1.707 16.64-1.707 25.173 0 134.827 73.813 259.413 188.16 317.44 15.787 8.107 34.987 1.706 43.093-14.081s1.707-34.987-14.080-43.094c-93.013-46.933-153.173-149.332-153.173-260.265 0-5.973 0.427-11.52 0.853-17.493 2.133-17.493-10.667-33.28-28.16-35.413-0.853-0.427-2.133-0.427-3.413-0.427z" />
<glyph unicode="&#xe91c;" glyph-name="graph" d="M781.653 416h-141.653c-106.24 0-160 60.16-160 179.202v122.453c0 43.52 5.12 105.813 50.347 139.947 37.973 28.16 92.587 30.293 173.227 6.827 105.813-30.72 194.133-119.040 224.853-224.853 23.467-80.213 21.333-135.255-6.827-172.802-34.133-45.653-96.427-50.773-139.947-50.773zM609.28 816.642c-17.493 0-31.147-3.413-40.107-10.24-16.64-12.373-24.747-41.387-24.747-88.747v-122.88c0-95.575 36.693-115.202 96-115.202h141.653c46.933 0 75.947 8.107 88.747 24.747 14.933 19.627 13.653 58.882-2.987 116.482-24.747 84.053-97.28 157.013-181.333 181.333-31.573 9.813-57.173 14.507-77.227 14.507zM472.337-10.658c-22.613 0-45.653 1.707-68.695 5.547-174.507 28.16-316.587 169.813-344.747 344.32-36.267 224.425 108.373 436.052 329.813 481.279 17.493 3.413 34.133-7.68 37.975-24.747 3.413-17.493-7.681-34.133-24.748-37.973-187.307-38.4-310.187-217.6-279.040-408.319 23.893-147.627 143.787-267.52 291.413-291.413 191.575-30.72 370.348 92.587 408.321 280.747 3.413 17.493 20.48 28.587 37.547 25.173 17.493-3.413 28.587-20.48 25.173-37.547-40.533-199.253-214.613-337.067-413.013-337.067z" />
<glyph unicode="&#xe91d;" glyph-name="slider-horizontal" d="M597.333 10.667h-170.667c-140.8 0-225.707 28.16-241.493 171.093-2.56 19.2-3.84 42.24-3.84 74.24v384c0 32 1.28 55.467 4.267 75.52 15.36 141.653 100.267 169.813 241.067 169.813h170.667c140.8 0 225.707-28.16 241.493-171.093 2.56-19.2 3.84-42.24 3.84-74.24v-384c0-32-1.28-55.467-4.267-75.52-15.36-141.653-100.267-169.813-241.067-169.813zM426.667 821.333c-141.227 0-168.107-28.587-177.92-113.92-2.133-17.92-3.413-38.4-3.413-67.413v-384c0-29.013 1.28-49.493 3.413-66.133 9.387-86.613 36.693-115.2 177.92-115.2h170.667c141.227 0 168.107 28.587 177.92 113.92 2.56 17.92 3.413 38.4 3.413 67.413v384c0 29.013-1.28 49.493-3.413 66.133-9.387 86.613-36.693 115.2-177.92 115.2h-170.667zM85.333 96c-17.493 0-32 14.507-32 32v640c0 17.493 14.507 32 32 32s32-14.507 32-32v-640c0-17.493-14.507-32-32-32zM938.667 117.333c-17.493 0-32 14.507-32 32v640c0 17.493 14.507 32 32 32s32-14.507 32-32v-640c0-17.493-14.507-32-32-32z" />
<glyph unicode="&#xe91e;" glyph-name="document-sketch" d="M640-10.667h-256c-231.68 0-330.667 98.987-330.667 330.667v256c0 231.68 98.987 330.667 330.667 330.667h213.333c17.493 0 32-14.507 32-32s-14.507-32-32-32h-213.333c-196.693 0-266.667-69.973-266.667-266.667v-256c0-196.693 69.973-266.667 266.667-266.667h256c196.693 0 266.667 69.973 266.667 266.667v213.333c0 17.493 14.507 32 32 32s32-14.507 32-32v-213.333c0-231.68-98.987-330.667-330.667-330.667zM938.667 501.333h-170.667c-145.92 0-202.667 56.747-202.667 202.667v170.667c0 12.8 7.68 24.747 19.627 29.44 11.947 5.12 25.6 2.133 34.987-6.827l341.333-341.333c8.96-8.96 11.947-23.040 6.827-34.987-4.693-11.947-16.64-19.627-29.44-19.627zM629.333 797.44v-93.44c0-110.080 28.587-138.667 138.667-138.667h93.44l-232.107 232.107zM411.761 161.698c-18.773 0-36.693 7.253-49.92 20.48l-104.96 104.96c-23.040 23.040-26.88 61.867-8.96 89.173l48.213 72.533c11.947 18.347 36.693 31.573 58.88 31.573h113.065c21.76 0 46.507-13.227 58.88-31.573l48.213-72.107c17.92-26.88 14.080-66.133-8.96-89.173l-104.96-104.96c-12.8-13.653-30.72-20.907-49.492-20.907zM355.441 415.991c-1.707-0.427-5.12-2.133-5.973-3.413l-47.787-72.107c-1.28-1.707-0.853-6.827 0.853-8.533l104.96-104.96c2.133-2.133 7.253-2.133 9.387 0l104.958 104.96c1.707 1.707 2.133 6.4 0.853 8.533l-48.213 72.107c-0.853 0.853-4.267 2.56-5.973 2.987l-113.065 0.427z" />
<glyph unicode="&#xe91f;" glyph-name="menu-board" d="M698.918-10.675h-560.64c-40.533 0-78.080 18.769-102.4 51.622-24.747 33.28-32 75.098-19.626 114.778l179.626 577.28c16.213 53.76 65.707 90.453 122.027 90.453h524.799c51.627 0 98.133-30.723 117.76-78.51 10.667-24.747 12.8-52.908 6.4-80.641l-143.787-577.276c-13.653-57.6-64.853-97.707-124.16-97.707zM318.332 759.031c-27.733 0-52.906-18.349-61.013-45.229l-179.626-577.282c-5.973-20.053-2.56-40.96 10.24-58.027 11.947-16.213 30.72-25.6 50.773-25.6h560.64c29.44 0 55.040 20.058 61.867 48.644l143.787 577.707c3.413 14.080 2.56 28.158-2.987 40.531-10.24 24.32-32.853 39.682-58.88 39.682l-524.8-0.427zM886.613-10.667h-203.947c-17.493 0-32 14.507-32 32s14.507 32 32 32h203.947c17.493 0 33.707 7.253 45.653 20.053s17.92 29.867 16.64 47.36l-42.24 581.119c-1.28 17.493 11.947 32.855 29.44 34.135 17.493 0.853 32.853-11.944 34.133-29.437l42.24-581.124c2.56-34.987-9.813-69.973-33.707-95.573-23.467-26.027-57.173-40.533-92.16-40.533zM413.004 655.799c-2.56 0-5.12 0.428-7.68 0.854-17.067 4.267-27.732 21.335-23.466 38.828l44.372 184.318c4.268 17.067 21.335 27.735 38.828 23.469 17.067-4.267 27.733-21.335 23.467-38.828l-44.373-184.323c-3.413-14.507-16.64-24.317-31.148-24.317zM698.859 655.371c-2.133 0-4.698 0.001-6.831 0.854-17.067 3.84-28.156 20.907-24.742 37.974l40.102 185.172c3.84 17.493 20.907 28.158 37.973 24.745s28.16-20.902 24.747-37.969l-40.107-185.177c-2.987-15.36-16.209-25.599-31.142-25.599zM669.833 416h-341.332c-17.493 0-32 14.507-32 32s14.507 32 32 32h341.332c17.493 0 32-14.507 32-32s-14.507-32-32-32zM627.166 245.333h-341.332c-17.493 0-32 14.507-32 32s14.507 32 32 32h341.332c17.493 0 32-14.507 32-32s-14.507-32-32-32z" />
<glyph unicode="&#xe920;" glyph-name="receipt-text" d="M828.587 458.667h-145.92c-17.493 0-32 14.507-32 32v298.24c0 31.573 12.373 61.013 34.56 83.2s51.627 34.56 83.2 34.56h0.427c53.333-0.427 103.68-21.333 142.080-59.307 38.4-38.827 59.307-90.027 59.307-143.36v-103.253c0.427-84.907-56.747-142.080-141.653-142.080zM714.667 522.667h113.92c49.493 0 78.080 28.587 78.080 78.080v103.253c0 36.693-14.507 71.68-40.533 98.133-26.027 25.6-60.587 40.107-97.28 40.533 0 0 0 0-0.427 0-14.080 0-27.733-5.547-37.973-15.787s-15.787-23.467-15.787-37.973v-266.24zM383.99-35.413c-20.053 0-38.826 7.68-52.906 22.187l-70.828 71.253c-3.84 3.84-9.811 4.267-14.078 0.853l-72.961-54.613c-22.613-17.067-52.48-20.053-78.080-7.253s-41.385 38.4-41.385 66.987v640c0 128.853 73.813 202.667 202.667 202.667h512.001c17.493 0 32-14.507 32-32s-14.507-32-32-32c-29.44 0-53.333-23.893-53.333-53.333v-725.333c0-28.587-15.791-54.187-41.391-66.987-25.173-12.8-55.462-9.813-78.076 7.253l-72.96 54.613c-4.267 3.413-10.244 2.56-13.658-0.853l-71.676-71.68c-14.508-14.080-33.282-21.76-53.335-21.76zM252.148 125.013c19.627 0 38.827-7.253 53.333-22.187l70.828-71.253c2.56-2.56 5.973-2.987 7.68-2.987s5.12 0.427 7.68 2.987l71.678 71.68c26.453 26.453 68.271 29.013 97.711 6.4l72.529-54.187c4.693-3.413 8.96-2.133 11.093-0.853s5.978 3.84 5.978 9.387v725.333c0 19.2 4.689 37.547 12.796 53.333h-407.464c-94.72 0-138.667-43.947-138.667-138.667v-640c0-5.973 3.84-8.533 5.974-9.813 2.56-1.28 6.827-2.133 11.094 1.28l72.958 54.613c13.227 9.813 29.013 14.933 44.8 14.933zM512 544h-256c-17.493 0-32 14.507-32 32s14.507 32 32 32h256c17.493 0 32-14.507 32-32s-14.507-32-32-32zM480 373.333h-192c-17.493 0-32 14.507-32 32s14.507 32 32 32h192c17.493 0 32-14.507 32-32s-14.507-32-32-32z" />
<glyph unicode="&#xe921;" glyph-name="layer" d="M503.057 453.12c-23.040 0-46.507 4.267-64.853 12.373l-251.734 111.787c-64 28.587-73.387 66.987-73.387 87.893s9.387 59.307 73.387 87.893l251.734 111.787c37.12 16.64 93.013 16.64 130.133 0l252.16-111.787c63.573-28.16 73.387-66.987 73.387-87.893s-9.387-59.307-73.387-87.893l-252.16-111.787c-18.773-8.533-41.813-12.373-65.28-12.373zM503.057 813.227c-14.507 0-28.587-2.133-38.827-6.827l-251.734-111.787c-26.027-11.947-35.413-23.893-35.413-29.44s9.387-17.92 34.987-29.44l251.734-111.787c20.48-8.96 57.6-8.96 78.080 0l252.16 111.787c26.027 11.52 35.413 23.893 35.413 29.44s-9.387 17.92-35.413 29.44l-251.733 111.787c-10.24 4.267-24.747 6.827-39.253 6.827zM512 230.827c-16.213 0-32.427 3.413-47.787 10.24l-289.707 128.853c-43.947 19.2-78.507 72.533-78.507 120.747 0 17.493 14.507 32 32 32s32-14.507 32-32c0-23.467 19.2-52.907 40.533-62.72l289.707-128.853c13.653-5.973 29.44-5.973 43.52 0l289.707 128.853c21.333 9.387 40.533 39.253 40.533 62.72 0 17.493 14.507 32 32 32s32-14.507 32-32c0-48.213-34.56-101.547-78.507-121.173l-289.707-128.853c-15.36-6.4-31.573-9.813-47.787-9.813zM512 17.485c-16.213 0-32.427 3.413-47.787 10.24l-289.707 128.853c-47.787 21.333-78.507 68.693-78.507 121.173 0 17.493 14.507 32 32 32s32-14.933 32-32.427c0-26.88 15.787-51.627 40.533-62.72l289.707-128.853c13.653-5.973 29.44-5.973 43.52 0l289.707 128.853c24.747 11.093 40.533 35.413 40.533 62.72 0 17.493 14.507 32 32 32s32-14.507 32-32c0-52.48-30.72-99.84-78.507-121.173l-289.707-128.853c-15.36-6.4-31.573-9.813-47.787-9.813z" />
<glyph unicode="&#xe922;" glyph-name="sms-edit" d="M512 53.333h-213.333c-155.733 0-245.333 89.6-245.333 245.333v298.667c0 155.733 89.6 245.333 245.333 245.333h426.667c155.733 0 245.333-89.6 245.333-245.333v-128c0-17.493-14.507-32-32-32s-32 14.507-32 32v128c0 122.027-59.307 181.333-181.333 181.333h-426.667c-122.027 0-181.333-59.307-181.333-181.333v-298.667c0-122.027 59.307-181.333 181.333-181.333h213.333c17.493 0 32-14.507 32-32s-14.507-32-32-32zM511.949 410.88c-35.84 0-72.107 11.093-99.84 33.707l-133.547 106.668c-13.653 11.093-16.213 31.146-5.12 44.8s31.146 15.787 44.8 5.12l133.547-106.668c32.427-26.027 87.467-26.027 119.893 0l133.547 106.668c13.653 11.093 33.707 8.96 44.8-5.12 11.093-13.653 8.96-34.133-5.12-44.8l-133.547-106.668c-27.307-22.613-63.573-33.707-99.413-33.707zM674.97 30.716c-16.213 0-31.573 5.973-42.667 17.067-13.227 13.227-19.2 32.427-16.213 52.48l8.107 57.6c2.133 14.933 11.093 32.853 21.76 43.52l151.040 151.040c20.48 20.48 40.533 31.147 62.293 33.28 26.453 2.56 52.907-8.533 77.653-33.28s35.84-50.773 33.28-77.653c-2.133-21.333-13.227-41.813-33.28-62.293l-151.040-151.040c-10.667-10.667-28.587-19.627-43.52-21.76l-57.604-8.107c-3.413-0.427-6.396-0.853-9.809-0.853zM866.543 322.129c-0.427 0-0.853 0-1.28 0-5.973-0.427-14.080-5.973-23.040-14.933l-151.040-151.040c-1.28-1.28-3.413-5.547-3.413-7.253l-7.68-53.333 53.333 7.68c1.707 0.427 5.969 2.56 7.249 3.84l151.044 151.040c8.96 9.387 14.507 17.067 14.933 23.040 0.853 8.533-7.68 18.773-14.933 26.027-6.827 6.827-16.64 14.933-25.173 14.933zM892.612 181.338c-2.987 0-5.973 0.427-8.533 1.28-56.32 15.787-101.12 60.587-116.907 116.907-4.693 17.067 5.12 34.56 22.187 39.68 17.067 4.693 34.56-5.12 39.253-22.187 9.813-34.987 37.547-62.72 72.533-72.533 17.067-4.693 26.88-22.613 22.187-39.68-3.84-14.080-16.64-23.467-30.72-23.467z" />
<glyph unicode="&#xe923;" glyph-name="d-square" d="M640-10.667h-256c-231.68 0-330.667 98.987-330.667 330.667v256c0 231.68 98.987 330.667 330.667 330.667h256c231.68 0 330.667-98.987 330.667-330.667v-256c0-231.68-98.987-330.667-330.667-330.667zM384 842.667c-196.693 0-266.667-69.973-266.667-266.667v-256c0-196.693 69.973-266.667 266.667-266.667h256c196.693 0 266.667 69.973 266.667 266.667v256c0 196.693-69.973 266.667-266.667 266.667h-256zM512.026 401.924c-5.547 0-11.093 1.28-16.213 4.267l-226.133 130.558c-15.36 8.96-20.481 28.586-11.521 43.52 8.96 15.36 28.588 20.48 43.521 11.52l209.92-121.598 208.64 120.745c15.36 8.96 34.987 3.414 43.52-11.52s3.413-34.987-11.52-43.52l-224.427-129.705c-4.693-2.56-10.24-4.267-15.787-4.267zM512 169.809c-17.493 0-32 14.507-32 32v232.107c0 17.493 14.507 32 32 32s32-14.507 32-32v-232.107c0-17.493-14.507-32-32-32zM512.009 160c-24.747 0-49.062 5.547-68.689 16.213l-136.535 75.947c-40.96 22.613-72.534 76.8-72.534 123.733v144.64c0 46.505 32.001 100.691 72.534 123.731l136.535 75.947c39.253 21.76 98.129 21.76 137.382 0l136.533-75.947c40.96-22.613 72.538-76.8 72.538-123.731v-144.64c0-46.507-32.004-100.693-72.538-123.733l-136.533-75.947c-19.627-11.093-43.947-16.213-68.693-16.213zM512.009 671.998c-14.080 0-27.733-2.56-37.547-8.107l-136.531-75.947c-20.907-11.52-39.681-43.947-39.681-67.411v-144.64c0-23.893 18.775-55.893 39.681-67.413l136.531-75.947c19.627-11.093 55.467-11.093 75.093 0l136.533 75.947c20.907 11.52 39.684 43.947 39.684 67.413v144.64c0 23.891-18.778 55.891-39.684 67.411l-136.533 75.947c-9.813 5.547-23.467 8.107-37.547 8.107z" />
<glyph unicode="&#xe924;" glyph-name="shopping-cart" d="M776.107 202.667h-454.4c-42.24 0-82.773 17.92-111.36 49.067s-43.093 72.96-39.68 115.2l35.413 424.96c1.28 13.227-3.414 26.026-12.374 35.84s-21.333 14.934-34.56 14.934h-73.813c-17.493 0-32 14.507-32 32s14.507 32 32 32h74.24c31.147 0 60.586-13.227 81.492-35.84 11.52-12.8 20.054-27.733 24.747-44.373h532.907c43.093 0 82.773-17.067 111.787-47.787 28.587-31.147 43.093-71.68 39.68-114.773l-23.040-320c-4.693-78.080-72.96-141.227-151.040-141.227zM267.947 762.88l-33.28-401.067c-2.133-24.747 5.973-48.213 22.613-66.56s39.68-28.16 64.426-28.16h454.4c44.373 0 84.48 37.547 87.893 81.92l23.040 320c1.707 25.173-6.4 49.067-23.040 66.56-16.64 17.92-39.68 27.734-64.853 27.734l-531.2-0.427zM693.333-10.667c-46.933 0-85.333 38.4-85.333 85.333s38.4 85.333 85.333 85.333c46.933 0 85.333-38.4 85.333-85.333s-38.4-85.333-85.333-85.333zM693.333 96c-11.947 0-21.333-9.387-21.333-21.333s9.387-21.333 21.333-21.333c11.947 0 21.333 9.387 21.333 21.333s-9.387 21.333-21.333 21.333zM352-10.667c-46.933 0-85.333 38.4-85.333 85.333s38.4 85.333 85.333 85.333c46.933 0 85.333-38.4 85.333-85.333s-38.4-85.333-85.333-85.333zM352 96c-11.947 0-21.333-9.387-21.333-21.333s9.387-21.333 21.333-21.333c11.947 0 21.333 9.387 21.333 21.333s-9.387 21.333-21.333 21.333zM896 586.667h-512c-17.493 0-32 14.507-32 32s14.507 32 32 32h512c17.493 0 32-14.507 32-32s-14.507-32-32-32z" />
<glyph unicode="&#xe925;" glyph-name="save-add" d="M626.773-10.671c-18.773 0-38.4 5.547-58.453 16.213l-167.68 93.44c-8.107 4.267-25.601 4.267-33.708 0l-167.253-93.44c-36.267-20.053-73.387-21.76-101.547-5.12-28.587 16.64-44.8 49.92-44.8 90.88v484.692c0 90.88 73.813 164.692 164.693 164.692h331.947c90.88 0 164.693-73.812 164.693-164.692v-484.692c0-40.96-16.213-74.24-44.8-90.88-12.8-7.253-27.307-11.093-43.093-11.093zM384 166.396c17.067 0 33.707-3.84 47.787-11.52l167.68-93.44c15.36-8.533 29.44-10.667 37.973-5.547 8.107 4.693 13.227 18.347 13.227 35.84v484.693c0 55.467-45.227 100.692-100.693 100.692h-331.947c-55.467 0-100.693-45.226-100.693-100.692v-484.693c0-17.493 5.12-31.147 13.227-35.84s22.614-2.56 37.974 5.973l167.68 93.44c13.654 7.253 30.72 11.093 47.787 11.093zM882.773 154.889c-18.773 0-38.4 5.551-58.453 16.218l-157.44 87.893c-10.24 5.547-16.213 16.209-16.213 27.729v289.282c0 55.467-45.227 100.693-100.693 100.693h-208.64c-17.493 0-32 14.507-32 32v32.854c0 90.88 73.813 164.692 164.693 164.692h331.947c90.88 0 164.693-73.812 164.693-164.692v-484.695c0-40.96-16.213-74.236-44.8-90.876-12.8-7.253-27.307-11.098-43.093-11.098zM714.667 305.933l140.8-78.933c15.36-8.533 29.44-10.671 37.973-5.551 8.107 4.693 13.227 18.347 13.227 35.84v484.696c0 55.467-45.227 100.692-100.693 100.692h-331.947c-55.467 0-100.693-45.226-100.693-100.692v-0.854h176.64c90.88 0 164.693-73.813 164.693-164.693v-270.505zM469.333 416h-170.667c-17.493 0-32 14.507-32 32s14.507 32 32 32h170.667c17.493 0 32-14.507 32-32s-14.507-32-32-32zM384 330.667c-17.493 0-32 14.507-32 32v170.667c0 17.493 14.507 32 32 32s32-14.507 32-32v-170.667c0-17.493-14.507-32-32-32z" />
<glyph unicode="&#xe926;" glyph-name="note-21" d="M682.667-10.667h-341.333c-128.853 0-202.667 73.813-202.667 202.667v416c0 134.4 68.267 202.667 202.667 202.667 17.493 0 32-14.507 32-32 0-17.067 6.827-33.28 18.773-45.227s28.16-18.773 45.227-18.773h149.333c35.413 0 64 28.587 64 64 0 17.493 14.507 32 32 32 134.4 0 202.667-68.267 202.667-202.667v-416c0-128.853-73.813-202.667-202.667-202.667zM313.599 745.813c-67.413-5.547-110.932-35.84-110.932-137.813v-416c0-94.72 43.947-138.667 138.667-138.667h341.333c94.72 0 138.667 43.947 138.667 138.667v416c0 101.973-43.52 131.84-110.933 137.813-14.507-54.613-64.427-95.147-123.733-95.147h-149.333c-34.133 0-66.133 13.227-90.453 37.547-16.213 16.213-27.308 35.84-33.281 57.6zM586.667 650.667h-149.333c-34.133 0-66.133 13.227-90.453 37.547s-37.547 56.32-37.547 90.453c0 70.4 57.6 128 128 128h149.333c34.133 0 66.133-13.227 90.453-37.547s37.547-56.32 37.547-90.453c0-70.4-57.6-128-128-128zM437.333 842.667c-35.413 0-64-28.587-64-64 0-17.067 6.827-33.28 18.773-45.227s28.16-18.773 45.227-18.773h149.333c35.413 0 64 28.587 64 64 0 17.067-6.827 33.28-18.773 45.227s-28.16 18.773-45.227 18.773h-149.333zM512 373.333h-170.667c-17.493 0-32 14.507-32 32s14.507 32 32 32h170.667c17.493 0 32-14.507 32-32s-14.507-32-32-32zM682.667 202.667h-341.333c-17.493 0-32 14.507-32 32s14.507 32 32 32h341.333c17.493 0 32-14.507 32-32s-14.507-32-32-32z" />
<glyph unicode="&#xe927;" glyph-name="security-user" d="M512.017-11.093c-46.507 0-92.586 13.658-128.853 40.538l-183.468 136.96c-48.64 36.267-86.613 111.787-86.613 172.373v317.011c0 65.707 48.214 135.68 110.081 158.72l212.906 79.787c42.24 15.787 108.8 15.787 151.040 0l213.333-79.787c61.867-23.040 110.080-93.013 110.080-158.72v-317.011c0-60.587-37.973-136.107-86.613-172.373l-183.467-136.96c-35.84-26.88-81.92-40.538-128.427-40.538zM458.684 834.562l-212.906-79.786c-36.693-13.653-68.694-59.734-68.694-98.987v-317.011c0-40.533 28.587-97.28 60.587-121.173l183.466-136.96c49.067-36.693 132.267-36.693 181.334 0l183.467 136.96c32.427 24.32 60.587 81.067 60.587 121.173v317.011c0 38.827-32 84.907-68.693 98.987l-212.907 79.786c-28.16 10.667-77.653 10.667-106.24 0zM511.996 462.071c-0.853 0-1.707 0-2.987 0-61.867 1.707-107.092 49.067-107.092 106.668 0 58.88 48.212 107.094 107.092 107.094s107.093-48.214 107.093-107.094c-0.427-58.028-45.653-104.957-103.253-107.090-0.427 0.427-0.427 0.422-0.853 0.422zM509.009 611.833c-23.893 0-43.093-19.2-43.093-43.094 0-23.467 18.347-42.237 41.387-43.090 0 0 2.133 0 4.693 0 22.613 1.28 40.107 20.050 40.107 43.090 0.427 23.893-19.2 43.094-43.093 43.094zM512.034 219.733c-36.693 0-73.813 9.813-102.4 29.013-28.587 18.773-44.801 46.507-44.801 75.947s16.214 57.173 44.801 76.373c57.6 38.4 147.627 37.973 204.8 0 28.587-18.773 44.8-46.507 44.8-75.947s-16.213-57.173-44.8-76.373c-28.587-19.2-65.707-29.013-102.4-29.013zM445.047 348.16c-10.667-6.827-16.64-15.36-16.213-23.040 0-7.68 5.973-16.213 16.213-23.040 35.84-23.893 98.133-23.893 133.973 0 10.667 6.827 16.64 15.36 16.64 23.040s-5.973 16.213-16.213 23.040c-35.84 23.467-98.56 23.467-134.4 0z" />
<glyph unicode="&#xe928;" glyph-name="send-1" d="M230.825 32.004c-47.787 0-78.080 16.213-97.28 35.413-37.547 37.547-64 117.333 20.48 286.72l37.12 73.813c4.693 9.813 4.693 30.293 0 40.107l-37.12 73.813c-84.907 169.387-58.027 249.6-20.48 286.72 37.12 37.547 117.333 64.427 286.293-20.48l365.225-182.613c90.88-45.227 140.8-108.373 140.8-177.493s-49.92-132.267-140.373-177.493l-365.225-182.613c-82.773-41.387-144.213-55.893-189.44-55.893zM230.825 800.004c-23.040 0-40.96-5.547-52.053-16.64-31.147-30.72-18.773-110.507 32.427-212.48l37.12-74.24c13.653-27.733 13.653-69.547 0-97.28l-37.12-73.813c-51.2-102.4-63.573-181.76-32.427-212.48 30.72-31.147 110.507-18.773 212.907 32.427l365.225 182.613c66.987 33.28 104.96 77.227 104.96 120.32s-38.4 87.040-105.387 120.32l-365.225 182.187c-64.853 32.427-120.747 49.067-160.427 49.067zM462.485 416h-230.402c-17.493 0-32 14.507-32 32s14.507 32 32 32h230.402c17.493 0 32-14.507 32-32s-14.507-32-32-32z" />
<glyph unicode="&#xe929;" glyph-name="sms-star" d="M725.333 53.333h-426.667c-155.733 0-245.333 89.6-245.333 245.333v298.667c0 155.733 89.6 245.333 245.333 245.333h213.333c17.493 0 32-14.507 32-32s-14.507-32-32-32h-213.333c-122.027 0-181.333-59.307-181.333-181.333v-298.667c0-122.027 59.307-181.333 181.333-181.333h426.667c122.027 0 181.333 59.307 181.333 181.333v170.667c0 17.493 14.507 32 32 32s32-14.507 32-32v-170.667c0-155.733-89.6-245.333-245.333-245.333zM511.949 410.889c-35.84 0-72.107 11.093-99.84 33.707l-133.547 106.668c-13.653 11.093-16.213 31.147-5.12 44.8s31.146 16.213 44.8 5.12l133.547-106.668c32.427-26.027 87.467-26.027 119.893 0 13.653 11.093 33.707 8.96 44.8-5.12 11.093-13.653 8.96-34.133-5.12-44.8-27.307-22.613-63.573-33.707-99.413-33.707zM714.27 543.99c-17.493 0-29.44 5.974-37.12 11.52-14.080 10.24-35.84 35.839-23.040 92.159l2.133 8.96c0.853 3.413-1.707 11.52-3.84 14.080l-14.933 14.934c-25.173 25.6-34.987 55.466-26.453 82.346 8.533 26.453 33.707 45.227 69.12 51.2l16.213 2.56c2.987 0.853 8.96 5.12 10.667 8.107l11.947 24.32c16.64 33.707 42.24 52.906 70.4 52.906s53.76-19.2 70.4-52.906l11.947-24.32c1.28-2.56 7.68-7.253 10.667-8.107l16.213-2.56c35.413-5.973 60.587-24.747 69.12-51.2s-0.853-56.32-26.453-82.346l-14.933-14.934c-2.133-2.56-4.693-10.667-3.84-14.080l2.133-8.96c12.8-56.32-8.96-81.919-23.040-92.159s-44.8-22.612-93.867 6.826l-10.667 6.4c-2.987 1.707-11.52 1.707-14.507 0l-11.093-6.4c-23.040-13.653-42.24-18.346-57.173-18.346zM788.937 842.657c-0.427-0.427-6.4-4.693-12.373-17.066l-11.947-24.32c-10.24-20.907-34.56-38.827-57.173-42.667l-16.213-2.56c-13.653-2.133-18.347-6.827-18.773-7.68 0-0.853 1.28-7.679 11.093-17.492l14.933-14.934c17.493-17.92 26.453-48.64 20.907-72.96l-2.133-8.96c-3.413-15.36-2.133-23.466-1.28-26.453 0.853 0.853 8.533 1.706 22.613 10.24l11.093 6.4c23.467 14.080 57.173 14.080 80.64 0l10.667-6.4c14.080-8.533 21.333-9.387 23.893-9.387-0.427 1.28 1.28 8.96-2.56 25.6l-2.133 8.96c-5.547 24.747 3.413 55.040 20.907 72.96l14.933 14.934c9.813 9.813 11.093 16.64 11.093 17.92-0.427 0.853-5.12 5.12-18.773 7.68l-16.213 2.56c-23.040 3.84-46.933 21.76-57.173 42.667l-11.947 23.894c-6.827 12.8-12.373 16.64-14.080 17.066z" />
<glyph unicode="&#xe92a;" glyph-name="receipt-discount" d="M828.587 458.667h-145.92c-17.493 0-32 14.507-32 32v298.24c0 31.573 12.373 61.013 34.56 83.2s51.627 34.56 83.2 34.56h0.427c53.333-0.427 103.68-21.333 142.080-59.307 38.4-38.827 59.307-90.027 59.307-143.36v-103.253c0.427-84.907-56.747-142.080-141.653-142.080zM714.667 522.667h113.92c49.493 0 78.080 28.587 78.080 78.080v103.253c0 36.693-14.507 71.68-40.533 98.133-26.027 25.6-61.013 40.107-97.28 40.533 0 0 0 0-0.427 0-14.080 0-27.733-5.547-37.973-15.787s-15.787-23.467-15.787-37.973v-266.24zM383.99-35.413c-20.053 0-38.827 7.68-52.907 22.187l-70.827 71.253c-3.84 3.84-9.813 4.267-14.080 0.853l-72.96-54.613c-22.613-17.067-52.48-20.053-78.080-7.253s-41.387 38.4-41.387 66.987v640c0 128.853 73.813 202.667 202.667 202.667h512.001c17.493 0 32-14.507 32-32s-14.507-32-32-32c-29.44 0-53.333-23.893-53.333-53.333v-725.333c0-28.587-15.787-54.187-41.387-66.987s-55.467-10.24-78.080 6.827l-72.96 54.613c-4.267 3.413-10.24 2.56-13.653-0.853l-71.68-71.68c-14.508-13.653-33.281-21.333-53.335-21.333zM252.15 125.013c19.627 0 38.827-7.253 53.333-22.187l70.827-71.253c2.56-2.56 5.973-2.987 7.68-2.987s5.12 0.427 7.68 2.987l71.681 71.68c26.453 26.453 68.267 29.013 97.707 6.4l72.533-54.187c4.693-3.413 8.96-2.133 11.093-0.853s5.973 3.84 5.973 9.387v725.333c0 19.2 4.693 37.547 12.8 53.333h-407.468c-94.72 0-138.667-43.947-138.667-138.667v-640c0-5.973 3.84-8.533 5.973-9.813 2.56-1.28 6.827-2.133 11.093 1.28l72.96 54.613c13.227 9.813 29.013 14.933 44.8 14.933zM487.667 359.249c-23.893 0-42.667 19.2-42.667 42.667s19.2 42.667 42.667 42.667c23.467 0 42.667-19.2 42.667-42.667s-19.2-42.667-42.667-42.667zM280.333 532.041c-23.893 0-42.667 19.201-42.667 42.668s19.2 42.667 42.667 42.667c23.467 0 42.667-19.2 42.667-42.667s-19.2-42.668-42.667-42.668zM267.56 342.187c-8.107 0-16.213 2.987-22.613 9.387-12.373 12.373-12.373 32.853 0 45.227l232.958 232.962c12.373 12.373 32.853 12.373 45.227 0s12.373-32.853 0-45.227l-232.958-232.962c-5.973-5.973-14.507-9.387-22.613-9.387z" />
<glyph unicode="&#xe92b;" glyph-name="component" d="M511.991-10.667c-49.92 0-96.428 19.2-131.415 54.187l-272.641 272.64c-34.987 34.987-54.186 81.92-54.186 131.413s19.199 96.427 54.186 131.414l272.641 272.64c34.987 34.987 81.921 54.185 131.415 54.185s96.422-19.198 131.409-54.185l272.644-272.64c34.987-34.987 54.182-81.92 54.182-131.414s-19.196-96.427-54.182-131.413l-272.644-272.64c-34.987-34.987-81.489-54.187-131.409-54.187zM511.991 842.667c-32.853 0-63.573-12.801-86.188-35.414l-272.641-272.638c-23.040-23.041-35.412-53.761-35.412-86.188s12.799-63.573 35.412-86.187l272.641-272.64c45.655-45.653 126.717-45.653 172.37 0l272.644 272.64c23.040 23.040 35.409 53.333 35.409 86.187s-12.796 63.573-35.409 86.188l-272.644 272.638c-22.613 22.613-53.329 35.414-86.182 35.414z" />
<glyph unicode="&#xe92c;" glyph-name="trend-down" d="M704.009 309.338c-8.107 0-16.213 2.987-22.613 9.387l-151.467 151.467-46.507-69.973c-5.12-8.107-14.080-13.227-23.467-14.080-9.813-0.853-19.2 2.56-25.6 9.387l-136.533 136.533c-12.373 12.372-12.373 32.852 0 45.225s32.853 12.373 45.227 0l108.8-108.798 46.507 69.972c5.12 7.68 13.653 12.8 23.467 14.080 9.813 0.853 19.2-2.56 25.6-9.387l179.2-179.198c12.373-12.373 12.373-32.853 0-45.227-6.4-6.4-14.507-9.387-22.613-9.387zM704 309.333h-85.333c-17.493 0-32 14.507-32 32s14.507 32 32 32h53.333v53.333c0 17.493 14.507 32 32 32s32-14.507 32-32v-85.333c0-17.493-14.507-32-32-32zM640-10.667h-256c-231.68 0-330.667 98.987-330.667 330.667v256c0 231.68 98.987 330.667 330.667 330.667h256c231.68 0 330.667-98.987 330.667-330.667v-256c0-231.68-98.987-330.667-330.667-330.667zM384 842.667c-196.693 0-266.667-69.973-266.667-266.667v-256c0-196.693 69.973-266.667 266.667-266.667h256c196.693 0 266.667 69.973 266.667 266.667v256c0 196.693-69.973 266.667-266.667 266.667h-256z" />
<glyph unicode="&#xe92d;" glyph-name="receipt-minus" d="M828.587 458.667h-145.92c-17.493 0-32 14.507-32 32v298.24c0 31.573 12.373 61.013 34.56 83.2s51.627 34.56 83.2 34.56h0.427c53.333-0.427 103.68-21.333 142.080-59.307 38.4-38.827 59.307-90.027 59.307-143.36v-103.253c0.427-84.907-56.747-142.080-141.653-142.080zM714.667 522.667h113.92c49.493 0 78.080 28.587 78.080 78.080v103.253c0 36.693-14.507 71.68-40.533 98.133-26.027 25.6-61.013 40.107-97.28 40.533 0 0 0 0-0.427 0-14.080 0-27.733-5.547-37.973-15.787s-15.787-23.467-15.787-37.973v-266.24zM383.99-35.413c-20.053 0-38.826 7.68-52.906 22.187l-70.827 71.253c-3.84 3.84-9.813 4.267-14.080 0.853l-72.96-54.613c-22.613-17.067-52.48-20.053-78.080-7.253s-41.387 38.4-41.387 66.987v640c0 128.853 73.813 202.667 202.667 202.667h512.001c17.493 0 32-14.507 32-32s-14.507-32-32-32c-29.44 0-53.333-23.893-53.333-53.333v-725.333c0-28.587-15.787-54.187-41.387-66.987s-55.467-10.24-78.080 6.827l-72.96 54.613c-4.267 3.413-10.24 2.56-13.653-0.853l-71.68-71.68c-14.508-13.653-33.282-21.333-53.335-21.333zM252.15 125.013c19.627 0 38.827-7.253 53.333-22.187l70.826-71.253c2.56-2.56 5.973-2.987 7.68-2.987-0.427 0.853 5.12 0.427 7.68 2.987l71.682 71.68c26.453 26.453 68.267 29.013 97.707 6.4l72.533-54.187c4.693-3.413 8.96-2.133 11.093-0.853s5.973 3.84 5.973 9.387v725.333c0 19.2 4.693 37.547 12.8 53.333h-407.468c-94.72 0-138.667-43.947-138.667-138.667v-640c0-5.973 3.84-8.533 5.973-9.813 2.56-1.28 6.827-2.133 11.094 1.28l72.96 54.613c13.227 9.813 29.014 14.933 44.8 14.933zM501.333 501.333h-234.667c-17.493 0-32 14.507-32 32s14.507 32 32 32h234.667c17.493 0 32-14.507 32-32s-14.507-32-32-32z" />
<glyph unicode="&#xe92e;" glyph-name="lock-circle" d="M640 458.667c-17.493 0-32 14.507-32 32v42.667c0 62.293-15.36 96-96 96s-96-33.707-96-96v-42.667c0-17.493-14.507-32-32-32s-32 14.507-32 32v42.667c0 39.68 0 160 160 160s160-120.32 160-160v-42.667c0-17.493-14.507-32-32-32zM512.017 305.071c-31.573 0-57.6 26.027-57.6 57.6s26.027 57.6 57.6 57.6c31.573 0 57.596-26.027 57.596-57.6s-26.022-57.6-57.596-57.6zM512.017 369.071c-3.413 0-6.404-2.987-6.404-6.4 0-7.253 12.804-7.253 12.804 0 0 3.413-2.987 6.4-6.4 6.4zM618.667 202.667h-213.333c-102.4 0-138.667 36.267-138.667 138.667v42.667c0 102.4 36.267 138.667 138.667 138.667h213.333c102.4 0 138.667-36.267 138.667-138.667v-42.667c0-102.4-36.267-138.667-138.667-138.667zM405.333 458.667c-67.84 0-74.667-6.827-74.667-74.667v-42.667c0-67.84 6.827-74.667 74.667-74.667h213.333c67.84 0 74.667 6.827 74.667 74.667v42.667c0 67.84-6.827 74.667-74.667 74.667h-213.333zM512-10.667c-253.013 0-458.667 205.653-458.667 458.667s205.653 458.667 458.667 458.667c253.013 0 458.667-205.653 458.667-458.667s-205.653-458.667-458.667-458.667zM512 842.667c-217.6 0-394.667-177.067-394.667-394.667s177.067-394.667 394.667-394.667c217.6 0 394.667 177.067 394.667 394.667s-177.067 394.667-394.667 394.667z" />
<glyph unicode="&#xe92f;" glyph-name="programming-arrow" d="M810.667 245.333c-17.493 0-32 14.507-32 32v405.333c0 29.44-23.893 53.333-53.333 53.333h-192c-17.493 0-32 14.507-32 32s14.507 32 32 32h192c64.853 0 117.333-52.48 117.333-117.333v-405.333c0-17.493-14.507-32-32-32zM640 629.336c-7.253 0-14.507 2.56-20.48 7.253l-128 106.667c-7.253 5.973-11.52 14.933-11.52 24.747s4.267 18.347 11.52 24.747l128 106.667c13.653 11.52 33.707 9.387 45.227-4.267s9.387-33.707-4.267-45.227l-98.56-81.92 98.56-81.92c13.653-11.52 15.36-31.573 4.267-45.226-6.4-7.68-15.787-11.52-24.747-11.52zM213.333 245.333c-17.493 0-32 14.507-32 32v298.667c0 17.493 14.507 32 32 32s32-14.507 32-32v-298.667c0-17.493-14.507-32-32-32zM224 565.333c-94.293 0-170.667 76.373-170.667 170.667s76.373 170.667 170.667 170.667c94.293 0 170.667-76.373 170.667-170.667s-76.373-170.667-170.667-170.667zM224 842.667c-58.88 0-106.667-47.787-106.667-106.667s47.787-106.667 106.667-106.667c58.88 0 106.667 47.787 106.667 106.667s-47.787 106.667-106.667 106.667zM213.333-10.667c-88.32 0-160 71.68-160 160s71.68 160 160 160c88.32 0 160-71.68 160-160s-71.68-160-160-160zM213.333 245.333c-52.907 0-96-43.093-96-96s43.093-96 96-96c52.907 0 96 43.093 96 96s-43.093 96-96 96zM810.667-10.667c-88.32 0-160 71.68-160 160s71.68 160 160 160c88.32 0 160-71.68 160-160s-71.68-160-160-160zM810.667 245.333c-52.907 0-96-43.093-96-96s43.093-96 96-96c52.907 0 96 43.093 96 96s-43.093 96-96 96z" />
<glyph unicode="&#xe930;" glyph-name="note-square" d="M469.333-10.667h-85.333c-231.68 0-330.667 98.987-330.667 330.667v256c0 231.68 98.987 330.667 330.667 330.667h256c231.68 0 330.667-98.987 330.667-330.667v-42.667c0-17.493-14.507-32-32-32s-32 14.507-32 32v42.667c0 196.693-69.973 266.667-266.667 266.667h-256c-196.693 0-266.667-69.973-266.667-266.667v-256c0-196.693 69.973-266.667 266.667-266.667h85.333c17.493 0 32-14.507 32-32s-14.507-32-32-32zM661.751-10.667c-64.427 0-117.333 52.48-117.333 117.333s52.48 117.333 117.333 117.333c64.853 0 117.333-52.48 117.333-117.333s-52.907-117.333-117.333-117.333zM661.751 159.573c-29.44 0-53.333-23.893-53.333-53.333s23.893-53.333 53.333-53.333c29.44 0 53.333 23.893 53.333 53.333s-23.893 53.333-53.333 53.333zM747.085 74.675c-17.493 0-32 14.507-32 32v298.24c0 17.493 14.507 32 32 32s32-14.507 32-32v-298.24c0-17.92-14.507-32-32-32zM899.405 256.009c-8.96 0-17.92 1.28-26.88 4.693l-94.298 31.151c-36.267 11.947-63.142 49.92-63.142 87.893v25.169c0 26.027 10.667 48.64 29.867 62.293s43.947 16.644 68.267 8.538l94.293-31.578c36.267-11.947 63.147-49.92 63.147-87.893v-25.173c0-26.027-10.671-48.64-29.871-62.293-11.947-8.533-26.449-12.8-41.382-12.8zM786.334 416.009c-1.707 0-3.409-0.427-4.262-0.853-1.707-1.28-2.987-4.267-2.987-10.24v-25.169c0-10.24 9.809-23.898 19.622-27.311l94.293-31.142c5.547-1.707 9.387-1.28 10.667-0.427 1.707 1.28 3.418 4.262 3.418 10.236v25.173c0 10.24-9.818 23.893-19.631 27.307l-94.289 31.147c-2.987 0.853-5.124 1.28-6.831 1.28z" />
<glyph unicode="&#xe931;" glyph-name="status" d="M426.231-2.138c-2.133 0-4.267 0-6.4 0.853-163.413 33.28-296.107 153.6-345.6 313.173-5.12 17.067 4.267 34.987 20.907 40.107 17.067 5.12 34.987-4.267 40.107-20.907 42.667-137.387 156.587-240.64 297.387-269.227 17.493-3.413 28.587-20.48 24.747-37.973-2.987-15.36-16.64-26.027-31.147-26.027zM936.542 459.52c-16.213 0-30.293 12.373-32 28.587-20.48 202.24-189.44 354.56-392.533 354.56-203.519 0-372.052-152.32-392.532-354.133-1.707-17.493-17.067-30.72-34.987-28.587-17.493 1.707-30.293 17.493-28.587 34.987 23.893 234.667 220.16 411.733 456.106 411.733 236.373 0 432.64-177.067 456.107-411.733 1.707-17.493-11.093-33.28-28.587-34.987-0.853-0.427-2.133-0.427-2.987-0.427zM597.764-2.125c-14.933 0-28.16 10.24-31.147 25.6-3.413 17.493 7.68 34.133 24.747 37.547 139.947 28.587 253.867 130.987 296.96 267.52 5.12 17.067 23.467 26.453 40.107 20.907 17.067-5.12 26.027-23.467 20.907-40.107-50.347-158.72-182.613-277.76-345.173-311.040-2.133 0-4.267-0.427-6.4-0.427z" />
<glyph unicode="&#xe932;" glyph-name="shield-slash" d="M512.004-11.098c-46.507 0-92.586 13.653-128.852 40.533l-67.84 50.773c-14.080 10.667-17.067 30.72-6.4 44.8s30.72 17.067 44.8 6.4l67.84-50.773c49.066-36.693 132.266-36.693 181.332 0l183.467 136.96c32.427 24.32 60.587 81.067 60.587 121.173v317.439c0 17.493 14.507 32 32 32s32-14.507 32-32v-317.012c0-60.587-37.973-136.107-86.613-172.373l-183.467-136.96c-36.267-27.307-82.347-40.96-128.853-40.96zM227.43 153.604c-6.827 0-13.227 2.133-19.2 6.4l-8.533 6.4c-48.64 36.267-86.613 112.213-86.613 172.373v317.438c0 65.707 48.213 135.68 110.080 158.72l212.907 79.787c42.24 15.787 108.8 15.787 151.040 0l213.333-79.787c8.96-3.413 17.493-7.68 26.027-12.8 14.933-9.387 19.627-29.013 10.24-43.947s-29.013-19.627-43.947-10.24c-4.693 2.987-9.387 5.547-14.507 7.253l-213.333 79.787c-28.16 10.667-78.080 10.667-106.24 0l-212.907-80.213c-36.693-13.653-68.693-59.733-68.693-98.987v-317.012c0-40.533 28.587-97.28 60.587-121.173l8.533-6.4c14.080-10.667 17.067-30.72 6.4-44.8-5.547-8.107-15.36-12.8-25.173-12.8zM85.31-10.662c-8.107 0-16.213 2.987-22.613 9.387-12.373 12.373-12.373 32.853 0 45.227l853.335 853.332c12.373 12.373 32.853 12.373 45.227 0s12.373-32.853 0-45.227l-853.335-853.332c-6.4-6.4-14.507-9.387-22.613-9.387z" />
<glyph unicode="&#xe933;" glyph-name="blend" d="M681.417 160c-71.253 0-139.52 26.453-192 73.813-6.827 5.973-10.667 14.933-10.667 23.893s3.84 17.92 10.667 23.893c47.36 41.813 74.667 102.4 74.667 166.4s-27.307 124.587-74.667 166.4c-6.827 5.973-10.667 14.507-10.667 23.893 0 8.96 3.84 17.92 10.667 23.893 52.907 47.787 120.747 73.813 192 73.813 158.72 0 288-129.28 288-288s-128.853-288-288-288zM558.963 260.693c36.267-23.893 78.507-36.693 122.88-36.693 123.307 0 224 100.693 224 224s-100.693 224-224 224c-43.947 0-86.613-12.8-122.88-36.693 44.373-51.627 69.547-117.76 69.547-187.307s-25.173-135.68-69.547-187.307zM340.083 160c-158.72 0-288 129.28-288 288s129.28 288 288 288c71.253 0 139.52-26.453 192-73.813 60.587-53.76 96-131.84 96-214.187s-34.987-160-96-214.187c-52.48-47.36-120.747-73.813-192-73.813zM340.083 672c-123.307 0-224-100.693-224-224s100.693-224 224-224c55.467 0 108.373 20.48 149.333 57.6 47.787 42.24 74.667 102.827 74.667 166.4s-27.307 124.587-74.667 166.4c-40.96 37.12-93.867 57.6-149.333 57.6z" />
<glyph unicode="&#xe934;" glyph-name="forward" d="M168.534 176.636c-19.627 0-39.68 5.12-57.6 15.787-36.267 20.907-57.6 58.027-57.6 99.84v312.322c0 41.813 21.334 78.933 57.6 99.84s79.359 20.907 115.199 0l270.507-156.16c12.373-7.253 22.187-15.788 29.867-25.175 4.693-5.547 7.253-12.8 7.253-20.053v-109.227c0-7.253-2.56-14.507-7.253-20.053-7.68-9.387-17.493-17.92-29.013-24.747l-271.36-157.013c-17.92-10.24-37.546-15.36-57.599-15.36zM168.534 655.357c-8.96 0-17.493-2.132-25.6-6.826-16.213-9.387-25.6-26.027-25.6-44.373v-312.322c0-18.347 9.387-34.987 25.6-44.373s34.986-9.387 51.199 0l270.507 156.16c1.707 0.853 3.413 2.133 4.693 3.413v82.347c-1.707 1.28-3.413 2.56-5.12 3.413l-270.080 155.735c-8.107 4.693-16.639 6.826-25.599 6.826zM584.947 176.636c-19.627 0-39.68 5.12-57.6 15.787-36.267 20.907-57.596 58.027-57.596 99.84v312.322c0 41.813 21.329 78.933 57.596 99.84s79.364 20.907 115.204 0l270.502-156.16c35.84-20.908 57.604-58.028 57.604-99.842s-21.333-78.933-57.604-99.84l-270.502-156.16c-17.92-10.667-37.978-15.787-57.604-15.787zM584.947 655.357c-8.96 0-17.493-2.132-25.6-6.826-16.213-9.387-25.596-25.6-25.596-44.373v-312.322c0-18.347 9.382-34.987 25.596-44.373s35.418-9.387 51.204 0l270.502 156.16c16.213 9.387 25.604 26.027 25.604 44.373s-9.391 34.987-25.604 44.373l-270.502 156.162c-8.107 4.693-16.644 6.826-25.604 6.826z" />
<glyph unicode="&#xe935;" glyph-name="cpu-charge" d="M614.4 74.667h-204.8c-187.307 0-270.933 83.627-270.933 270.933v204.8c0 187.307 83.627 270.933 270.933 270.933h204.8c187.307 0 270.933-83.627 270.933-270.933v-204.8c0-187.307-83.627-270.933-270.933-270.933zM409.6 757.333c-152.747 0-206.933-54.187-206.933-206.933v-204.8c0-152.747 54.187-206.933 206.933-206.933h204.8c152.747 0 206.933 54.187 206.933 206.933v204.8c0 152.747-54.187 206.933-206.933 206.933h-204.8zM576 202.667h-128c-123.733 0-181.333 57.6-181.333 181.333v128c0 123.733 57.6 181.333 181.333 181.333h128c123.733 0 181.333-57.6 181.333-181.333v-128c0-123.733-57.6-181.333-181.333-181.333zM448 629.333c-88.747 0-117.333-28.587-117.333-117.333v-128c0-88.747 28.587-117.333 117.333-117.333h128c88.747 0 117.333 28.587 117.333 117.333v128c0 88.747-28.587 117.333-117.333 117.333h-128zM341.75 757.333c-17.92 0-32 14.507-32 32v85.333c0 17.493 14.507 32 32 32s32-14.507 32-32v-85.333c0-17.493-14.507-32-32-32zM512 757.333c-17.493 0-32 14.507-32 32v85.333c0 17.493 14.507 32 32 32s32-14.507 32-32v-85.333c0-17.493-14.507-32-32-32zM682.667 757.333c-17.493 0-32 14.507-32 32v85.333c0 17.493 14.507 32 32 32s32-14.507 32-32v-85.333c0-17.493-14.507-32-32-32zM938.667 586.667h-85.333c-17.493 0-32 14.507-32 32s14.507 32 32 32h85.333c17.493 0 32-14.507 32-32s-14.080-32-32-32zM938.667 416h-85.333c-17.493 0-32 14.507-32 32s14.507 32 32 32h85.333c17.493 0 32-14.507 32-32s-14.080-32-32-32zM938.667 245.333h-85.333c-17.493 0-32 14.507-32 32s14.507 32 32 32h85.333c17.493 0 32-14.507 32-32s-14.080-32-32-32zM682.667-10.667c-17.493 0-32 14.507-32 32v85.333c0 17.493 14.507 32 32 32s32-14.507 32-32v-85.333c0-17.493-14.507-32-32-32zM512.418-10.667c-17.493 0-32 14.507-32 32v85.333c0 17.493 14.507 32 32 32s32-14.507 32-32v-85.333c0-17.493-14.507-32-32-32zM341.75-10.667c-17.493 0-32 14.507-32 32v85.333c0 17.493 14.507 32 32 32s32-14.507 32-32v-85.333c0-17.493-14.507-32-32-32zM170.667 586.667h-85.333c-17.493 0-32 14.080-32 32s14.507 32 32 32h85.333c17.493 0 32-14.507 32-32s-14.080-32-32-32zM170.667 416h-85.333c-17.493 0-32 14.507-32 32s14.507 32 32 32h85.333c17.493 0 32-14.507 32-32s-14.080-32-32-32zM170.667 245.333h-85.333c-17.493 0-32 14.507-32 32s14.507 32 32 32h85.333c17.493 0 32-14.507 32-32s-14.080-32-32-32zM511.983 317.867c-5.547 0-11.093 1.28-15.787 4.267-15.36 8.96-20.48 28.587-11.947 43.52l29.013 50.347h-25.173c-20.48 0-37.12 8.96-46.080 24.32s-8.107 34.56 1.707 52.053l40.107 69.975c8.96 15.36 28.587 20.48 43.52 11.947 15.36-8.96 20.48-28.587 11.947-43.522l-29.013-50.347h25.173c20.48 0 37.12-8.96 46.080-24.32s8.107-34.56-1.707-52.053l-40.107-69.973c-5.973-10.667-16.64-16.213-27.733-16.213z" />
<glyph unicode="&#xe936;" glyph-name="shuffle" d="M237.237 160.427c0 0-0.426 0-0.853 0l-108.801 0.427c-17.493 0-32 14.507-32 32s14.507 32 32 32l109.227-0.427c27.733 0 53.761 13.653 69.121 37.12l272.637 408.748c27.307 40.96 72.96 65.706 122.453 65.706 0 0 0.431 0 0.858 0l194.129-0.854c17.493 0 32-14.507 32-32s-14.507-32-32-32l-194.56 0.854c-27.733 0-53.756-13.653-69.116-37.12l-272.643-408.747c-27.307-41.387-72.96-65.707-122.453-65.707zM810.645 75.524c-8.107 0-16.213 2.987-22.613 9.387-12.373 12.373-12.373 32.853 0 45.227l85.333 85.333c12.373 12.373 32.853 12.373 45.227 0s12.373-32.853 0-45.227l-85.333-85.333c-6.4-6.4-14.507-9.387-22.613-9.387zM379.307 559.797c-9.813 0-19.627 4.693-26.027 13.227l-46.080 64c-15.787 21.76-41.814 34.56-67.841 34.56l-111.36-0.427c-19.627 0.427-32 14.080-32 32 0 17.493 14.080 32 32 32l111.36 0.427c0.427 0 0.427 0 0.854 0 47.36 0 91.733-23.040 119.466-61.013l46.081-64c10.24-14.507 7.253-34.133-7.254-44.8-5.973-3.84-12.373-5.974-19.2-5.974zM696.299 160.004c-45.227 0-88.747 21.333-116.48 57.173l-52.053 66.982c-10.667 14.080-8.107 34.138 5.547 44.804 14.080 10.667 34.133 8.107 44.8-5.547l52.053-66.987c15.787-20.48 40.96-30.72 66.133-32.427l199.253 0.853c17.493 0 32-14.080 32-32 0-17.493-14.080-32-32-32l-199.253-0.853c0.427 0 0 0 0 0zM895.979 671.147c-8.107 0-16.213 2.988-22.613 9.388l-85.333 85.333c-12.373 12.373-12.373 32.853 0 45.227s32.853 12.373 45.227 0l85.333-85.333c12.373-12.373 12.373-32.853 0-45.227-6.4-6.4-14.507-9.388-22.613-9.388z" />
<glyph unicode="&#xe937;" glyph-name="task-square" d="M751.748 549.542h-224c-17.493 0-32 14.507-32 32s14.507 32 32 32h224c17.493 0 32-14.507 32-32s-14.080-32-32-32zM303.81 517.129c-8.107 0-16.213 2.987-22.613 9.387l-32 31.999c-12.373 12.373-12.373 32.853 0 45.227s32.853 12.373 45.227 0l9.387-9.387 73.387 73.387c12.373 12.373 32.853 12.373 45.227 0 12.371-12.373 12.371-32.853 0-45.227l-96-95.999c-5.973-5.973-14.080-9.387-22.613-9.387zM751.748 250.876h-224c-17.493 0-32 14.507-32 32s14.507 32 32 32h224c17.493 0 32-14.507 32-32s-14.080-32-32-32zM303.81 218.462c-8.107 0-16.213 2.987-22.613 9.387l-32 32c-12.373 12.373-12.373 32.853 0 45.227s32.853 12.373 45.227 0l9.387-9.387 73.387 73.387c12.373 12.373 32.853 12.373 45.227 0 12.371-12.373 12.371-32.853 0-45.227l-96-96c-5.973-5.973-14.080-9.387-22.613-9.387zM640-10.667h-256c-231.68 0-330.667 98.987-330.667 330.667v256c0 231.68 98.987 330.667 330.667 330.667h256c231.68 0 330.667-98.987 330.667-330.667v-256c0-231.68-98.987-330.667-330.667-330.667zM384 842.667c-196.693 0-266.667-69.973-266.667-266.667v-256c0-196.693 69.973-266.667 266.667-266.667h256c196.693 0 266.667 69.973 266.667 266.667v256c0 196.693-69.973 266.667-266.667 266.667h-256z" />
<glyph unicode="&#xe938;" glyph-name="heart-edit" d="M512 36.262c-9.387 0-23.467 0.853-36.693 5.547-162.987 55.893-421.973 253.867-421.973 547.412 0 149.333 120.747 270.508 269.227 270.508 72.107 0 139.52-28.161 189.44-78.508 49.92 50.347 117.333 78.508 189.44 78.508 148.48 0 269.227-121.174 269.227-270.508 0-51.627-7.68-102.399-23.040-151.039-5.12-16.64-23.467-26.453-40.107-20.907-17.067 5.12-26.027 23.462-20.907 40.102 13.227 42.24 20.053 86.616 20.053 131.416 0 113.92-92.16 206.508-205.227 206.508-64.853 0-125.013-30.293-163.84-82.346-11.947-16.213-39.253-16.213-51.2 0-39.253 52.48-98.987 82.346-163.84 82.346-113.067 0-205.227-92.588-205.227-206.508 0-291.839 280.32-453.545 378.88-487.252 2.56-0.853 8.533-2.133 15.787-2.133 17.493 0 32-14.507 32-32s-14.507-31.147-32-31.147zM674.97-10.671c-16.213 0-31.573 5.973-42.667 17.067-13.227 13.227-19.2 32.427-16.213 52.48l8.107 57.6c2.133 14.933 11.093 32.853 21.76 43.52l151.040 151.040c20.48 20.48 40.533 31.147 62.293 33.28 26.88 2.56 52.907-8.533 77.653-33.28s35.84-50.773 33.28-77.653c-2.133-21.333-13.227-41.813-33.28-62.293l-151.040-151.040c-10.667-10.667-28.16-19.627-43.093-21.76l-57.6-8.107c-3.84-0.427-6.827-0.853-10.24-0.853zM866.543 280.742c-0.427 0-0.853 0-1.28 0-5.973-0.427-14.080-5.547-23.040-14.933l-151.040-151.040c-1.28-1.28-3.413-5.547-3.413-7.253l-7.68-53.333 53.333 7.68c1.707 0.427 5.973 2.56 7.253 3.84l151.040 151.040c8.96 8.96 14.507 17.067 14.933 23.040 0.853 8.533-7.68 18.773-14.933 26.027-6.827 6.827-16.64 14.933-25.173 14.933zM892.612 139.942c-2.987 0-5.973 0.427-8.533 1.28-56.32 15.787-101.12 60.587-116.907 116.907-4.693 17.067 5.12 34.56 22.187 39.253s34.56-5.12 39.68-22.187c9.813-34.987 37.547-62.72 72.533-72.533 17.067-4.693 26.88-22.613 22.187-39.253-4.267-14.080-17.067-23.467-31.147-23.467z" />
<glyph unicode="&#xe939;" glyph-name="lamp-charge" d="M512.017 369.071c-5.547 0-11.093 1.28-15.787 4.267-15.36 8.96-20.48 28.587-11.947 43.52l36.267 63.147h-35.84c-21.333 0-38.827 9.387-48.213 25.173-9.387 16.213-8.533 35.84 2.133 54.613l45.653 79.36c8.96 15.36 28.587 20.48 43.52 11.947 15.36-8.96 20.48-28.587 11.947-43.52l-36.267-63.573h35.84c21.333 0 38.827-9.387 48.213-25.173 9.387-16.213 8.533-35.84-2.133-54.613l-45.653-79.36c-5.973-10.24-16.64-15.787-27.733-15.787zM630.191 117.342h-235.092c-18.773 0-42.667 2.133-58.453 18.347-15.36 15.787-14.933 35.413-14.507 48.64v37.973c-107.52 71.68-178.347 196.267-178.347 314.88 0 112.213 50.347 217.173 137.813 287.573s202.239 96.853 314.452 72.107c106.667-23.467 198.827-94.72 246.613-190.72 92.587-186.453 3.413-388.267-139.093-484.267v-32c0.427-12.373 0.853-34.987-16.64-52.907-13.227-12.8-32-19.627-56.747-19.627zM385.712 181.769c2.133 0 5.12-0.427 8.96-0.427h235.519c4.267 0 7.253 0.427 8.96 0.853 0 1.28 0 2.987 0 4.267v53.76c0 11.093 5.973 21.76 15.36 27.307 126.293 76.373 209.92 250.88 130.133 410.88-39.253 78.933-115.2 137.387-203.093 156.587-93.013 20.48-188.159-1.28-260.692-59.733s-113.92-145.067-113.92-238.080c0-118.613 81.92-221.013 162.987-270.080 9.813-5.973 15.36-16.213 15.36-27.307v-57.6c0.427 0 0.427 0 0.427-0.427zM661.346-10.662c-2.987 0-5.973 0.427-8.96 1.28-92.16 26.453-189.013 26.453-281.175 0-17.067-4.693-34.56 5.12-39.68 22.187s5.12 34.56 22.187 39.68c103.255 29.44 212.909 29.44 316.162 0 17.067-4.693 26.88-22.613 22.187-39.68-3.84-14.507-16.64-23.467-30.72-23.467z" />
<glyph unicode="&#xe93a;" glyph-name="arrow-swap" d="M384.403 53.325c-8.107 0-16.213 2.987-22.613 9.387l-213.76 213.76c-12.373 12.373-12.373 32.853 0 45.227s32.853 12.373 45.227 0l213.76-213.76c12.373-12.373 12.373-32.853 0-45.227-6.4-5.973-14.507-9.387-22.613-9.387zM384.417 53.333c-17.493 0-32 14.507-32 32v725.333c0 17.493 14.507 32 32 32s32-14.507 32-32v-725.333c0-17.493-14.507-32-32-32zM853.739 564.909c-8.107 0-16.213 2.987-22.613 9.387l-213.76 213.76c-12.373 12.373-12.373 32.853 0 45.227s32.853 12.373 45.227 0l213.76-213.76c12.373-12.373 12.373-32.853 0-45.227-6.4-6.4-14.507-9.387-22.613-9.387zM639.582 53.333c-17.493 0-32 14.507-32 32v725.333c0 17.493 14.507 32 32 32s32-14.507 32-32v-725.333c0-17.493-14.080-32-32-32z" />
<glyph unicode="&#xe93b;" glyph-name="add-circle" d="M512-10.667c-253.013 0-458.667 205.653-458.667 458.667s205.653 458.667 458.667 458.667c253.013 0 458.667-205.653 458.667-458.667s-205.653-458.667-458.667-458.667zM512 842.667c-217.6 0-394.667-177.067-394.667-394.667s177.067-394.667 394.667-394.667c217.6 0 394.667 177.067 394.667 394.667s-177.067 394.667-394.667 394.667zM682.667 416h-341.333c-17.493 0-32 14.507-32 32s14.507 32 32 32h341.333c17.493 0 32-14.507 32-32s-14.507-32-32-32zM512 245.333c-17.493 0-32 14.507-32 32v341.333c0 17.493 14.507 32 32 32s32-14.507 32-32v-341.333c0-17.493-14.507-32-32-32z" />
<glyph unicode="&#xe93c;" glyph-name="filter" d="M466.79-6.404c-20.48 0-40.534 5.12-59.307 15.36-37.547 20.907-60.16 58.88-60.16 101.547v226.133c0 21.333-14.080 53.333-27.307 69.547l-159.573 168.96c-26.88 26.88-47.36 72.96-47.36 107.52v98.133c0 68.267 51.627 121.6 117.333 121.6h563.2c64.853 0 117.333-52.48 117.333-117.333v-93.867c0-44.8-26.88-95.573-52.053-120.747l-184.747-163.413c-17.92-14.933-32-47.787-32-74.24v-183.467c0-37.973-23.893-81.92-53.76-99.84l-58.88-37.973c-19.2-11.947-40.96-17.92-62.72-17.92zM230.417 838.396c-29.867 0-53.333-25.173-53.333-57.6v-98.133c0-15.787 12.8-46.507 29.013-62.72l162.56-171.093c21.76-26.88 43.093-71.68 43.093-111.787v-226.133c0-27.733 19.2-41.387 27.307-45.653 17.92-9.813 39.68-9.813 56.32 0.427l59.307 37.973c11.947 7.253 23.893 30.293 23.893 45.653v183.467c0 45.653 22.187 96 54.187 122.88l182.613 161.707c14.507 14.507 32 49.067 32 74.24v93.44c0 29.44-23.893 53.333-53.333 53.333h-563.627zM255.986 501.333c-5.973 0-11.52 1.707-17.067 4.693-14.933 9.387-19.627 29.439-10.24 44.372l210.348 337.067c9.387 14.933 29.013 19.627 43.947 10.24s19.627-29.013 10.24-43.947l-210.348-337.066c-5.973-9.813-16.213-15.36-26.88-15.36z" />
<glyph unicode="&#xe93d;" glyph-name="filter-square" d="M485.547 153.604c-14.080 0-28.16 3.413-40.96 10.667-26.027 14.507-41.813 40.96-41.813 70.827v131.413c0 8.107-6.4 23.893-12.8 32l-92.587 97.28c-17.493 17.493-30.72 48.213-30.72 71.68v56.747c0 47.36 35.84 84.053 81.493 84.053h327.253c44.8 0 81.493-36.693 81.493-81.493v-54.613c0-29.867-17.067-62.72-34.133-79.787l-107.947-95.573c-6.827-5.973-14.080-20.907-14.080-33.28v-106.667c0-26.88-16.213-56.747-37.973-69.547l-33.707-21.76c-13.227-8.107-28.16-11.947-43.52-11.947zM348.16 644.271c-10.24 0-17.493-8.533-17.493-20.053v-56.747c0-5.547 5.973-20.053 12.8-26.88l94.72-99.84c14.507-18.347 28.587-47.787 28.587-74.24v-131.413c0-8.533 5.547-13.227 8.96-14.933 4.693-2.56 12.373-4.267 19.2 0l34.133 22.187c3.413 2.56 7.68 11.093 7.68 15.36v106.667c0 30.293 14.933 64 36.267 81.493l105.813 93.867c5.547 5.547 14.080 22.613 14.080 33.28v53.76c0 9.387-8.107 17.493-17.493 17.493h-327.253zM640-10.667h-256c-231.68 0-330.667 98.987-330.667 330.667v256c0 231.68 98.987 330.667 330.667 330.667h256c231.68 0 330.667-98.987 330.667-330.667v-256c0-231.68-98.987-330.667-330.667-330.667zM384 842.667c-196.693 0-266.667-69.973-266.667-266.667v-256c0-196.693 69.973-266.667 266.667-266.667h256c196.693 0 266.667 69.973 266.667 266.667v256c0 196.693-69.973 266.667-266.667 266.667h-256z" />
<glyph unicode="&#xe93e;" glyph-name="folder-add" d="M514.581 224c-17.493 0-32 14.507-32 32v213.333c0 17.493 14.507 32 32 32s32-14.507 32-32v-213.333c0-17.493-14.507-32-32-32zM618.667 330.667h-213.333c-17.493 0-32 14.507-32 32s14.507 32 32 32h213.333c17.493 0 32-14.507 32-32s-14.507-32-32-32zM725.333-10.667h-426.667c-188.16 0-245.333 57.173-245.333 245.333v426.667c0 188.16 57.173 245.333 245.333 245.333h64c74.667 0 98.133-24.32 128-64l64-85.333c14.080-18.773 16.213-21.333 42.667-21.333h128c188.16 0 245.333-57.173 245.333-245.333v-256c0-188.16-57.173-245.333-245.333-245.333zM298.667 842.667c-152.32 0-181.333-29.013-181.333-181.333v-426.667c0-152.32 29.013-181.333 181.333-181.333h426.667c152.32 0 181.333 29.013 181.333 181.333v256c0 152.32-29.013 181.333-181.333 181.333h-128c-54.613 0-72.533 18.773-93.867 46.933l-64 85.333c-22.187 29.44-28.587 38.4-76.8 38.4h-64z" />
<glyph unicode="&#xe93f;" glyph-name="document-upload" d="M383.977 202.667c-17.493 0-32 14.507-32 32v178.773l-30.72-30.72c-12.373-12.373-32.853-12.373-45.227 0s-12.373 32.853 0 45.227l85.333 85.333c8.96 8.96 23.040 11.947 34.987 6.827 11.947-4.693 19.627-16.64 19.627-29.44v-256c0-17.493-14.507-32-32-32zM469.312 373.338c-8.107 0-16.213 2.987-22.613 9.387l-85.335 85.333c-12.373 12.373-12.373 32.853 0 45.227s32.853 12.373 45.227 0l85.335-85.333c12.373-12.373 12.373-32.853 0-45.227-6.4-6.4-14.507-9.387-22.613-9.387zM640-10.667h-256c-231.68 0-330.667 98.987-330.667 330.667v256c0 231.68 98.987 330.667 330.667 330.667h213.333c17.493 0 32-14.507 32-32s-14.507-32-32-32h-213.333c-196.693 0-266.667-69.973-266.667-266.667v-256c0-196.693 69.973-266.667 266.667-266.667h256c196.693 0 266.667 69.973 266.667 266.667v213.333c0 17.493 14.507 32 32 32s32-14.507 32-32v-213.333c0-231.68-98.987-330.667-330.667-330.667zM938.667 501.333h-170.667c-145.92 0-202.667 56.747-202.667 202.667v170.667c0 12.8 7.68 24.747 19.627 29.44 11.947 5.12 25.6 2.133 34.987-6.827l341.333-341.333c8.96-8.96 11.947-23.040 6.827-34.987s-16.64-19.627-29.44-19.627zM629.333 797.44v-93.44c0-110.080 28.587-138.667 138.667-138.667h93.44l-232.107 232.107z" />
<glyph unicode="&#xe940;" glyph-name="arrow-square-down" d="M640-10.667h-256c-231.68 0-330.667 98.987-330.667 330.667v256c0 231.68 98.987 330.667 330.667 330.667h256c231.68 0 330.667-98.987 330.667-330.667v-256c0-231.68-98.987-330.667-330.667-330.667zM384 842.667c-196.693 0-266.667-69.973-266.667-266.667v-256c0-196.693 69.973-266.667 266.667-266.667h256c196.693 0 266.667 69.973 266.667 266.667v256c0 196.693-69.973 266.667-266.667 266.667h-256zM512.009 323.849c-8.107 0-16.213 2.987-22.613 9.387l-150.615 150.613c-12.373 12.373-12.373 32.853 0 45.227s32.853 12.372 45.227 0l128.002-128 128 128c12.373 12.372 32.853 12.372 45.227 0s12.373-32.853 0-45.227l-150.613-150.613c-6.4-6.4-14.507-9.387-22.613-9.387z" />
<glyph unicode="&#xe941;" glyph-name="tag-right" d="M625.894 36.262h-445.865c-46.933 0-88.319 24.32-110.932 65.28s-21.332 89.173 3.414 128.853l118.185 189.013c9.387 14.933 9.387 42.667 0 57.173l-118.185 189.013c-24.747 39.68-26.028 87.893-3.414 128.853s64.426 65.28 110.932 65.28h488.105c40.107 0 86.613-25.6 107.52-59.733l178.347-285.013c23.893-38.4 21.76-97.28-5.547-133.547l-221.013-294.4c-21.76-29.013-65.28-50.773-101.547-50.773zM180.029 795.729c-23.040 0-43.946-11.947-55.039-32.427s-10.668-44.373 1.706-64l118.188-189.013c22.187-35.84 22.187-89.6 0-125.44l-118.188-189.013c-12.373-19.627-12.799-43.52-1.706-64s31.999-32.427 55.039-32.427h445.865c16.213 0 40.533 12.373 50.347 25.173l221.018 294.4c11.52 15.36 12.8 44.8 2.56 61.013l-178.351 285.013c-9.387 15.36-35.413 29.44-53.333 29.44h-488.105v1.28z" />
<glyph unicode="&#xe942;" glyph-name="messages-3" d="M721.067 148.915c-13.227 0-26.453 3.844-37.973 11.524l-40.96 26.88c-11.52 7.68-17.067 22.182-13.227 35.409 2.987 9.813 4.267 21.338 4.267 34.138v173.653c0 69.547-43.52 113.064-113.067 113.064h-289.707c-5.12 0-9.813-0.427-14.506-0.854-8.96-0.427-17.493 2.561-24.32 8.534s-10.24 14.506-10.24 23.466v118.188c0 125.44 87.893 213.333 213.333 213.333h362.667c125.44 0 213.333-87.893 213.333-213.333v-217.597c0-61.867-20.907-116.48-59.307-154.027-30.72-31.147-73.387-51.204-122.027-57.178v-47.356c0-25.6-14.080-48.644-36.267-60.591-10.24-4.693-21.333-7.253-32-7.253zM695.467 229.129l27.733-15.787c2.56 1.28 2.56 3.418 2.56 3.844v77.227c0 17.493 14.507 32 32 32 44.8 0 82.773 14.076 108.8 40.529 26.88 26.453 40.533 64.004 40.533 108.804v217.597c0 90.88-58.453 149.333-149.333 149.333h-362.667c-90.88 0-149.333-58.453-149.333-149.333v-85.333h274.774c104.107 0 177.067-72.961 177.067-177.068v-173.649c-0.427-9.813-0.853-19.204-2.133-28.164zM258.987-10.667c-9.387 0-19.2 2.133-28.16 6.827-20.053 10.667-32.427 31.147-32.427 54.187v32.427c-37.547 5.973-70.826 21.76-95.573 46.507-32.427 32.427-49.493 76.8-49.493 128v173.653c0 96.427 63.146 167.252 157.013 176.212 6.827 0.427 13.227 0.854 20.053 0.854h289.707c104.107 0 177.067-72.961 177.067-177.067v-173.653c0-18.773-2.133-36.267-6.827-52.053-19.2-76.8-84.48-125.013-170.24-125.013h-106.24l-120.747-80.213c-10.24-7.253-22.186-10.667-34.133-10.667zM230.4 544c-5.12 0-9.813-0.428-14.506-0.854-61.44-5.547-98.56-47.786-98.56-112.212v-173.653c0-34.133 10.667-62.72 30.72-82.773 19.627-19.627 48.213-30.293 82.346-30.293 17.493 0 32-14.507 32-32v-55.893l123.734 82.347c5.12 3.413 11.52 5.547 17.92 5.547h116.053c56.32 0 96 28.16 108.373 77.653 2.987 10.667 4.693 22.613 4.693 35.413v173.653c0 69.547-43.52 113.067-113.067 113.067h-289.707z" />
<glyph unicode="&#xe943;" glyph-name="setting-5" d="M810.667-10.667c-17.493 0-32 14.507-32 32v469.333c0 17.493 14.507 32 32 32s32-14.507 32-32v-469.333c0-17.493-14.507-32-32-32zM810.667 629.333c-17.493 0-32 14.507-32 32v213.333c0 17.493 14.507 32 32 32s32-14.507 32-32v-213.333c0-17.493-14.507-32-32-32zM512-10.667c-17.493 0-32 14.507-32 32v213.333c0 17.493 14.507 32 32 32s32-14.507 32-32v-213.333c0-17.493-14.507-32-32-32zM512 373.333c-17.493 0-32 14.507-32 32v469.333c0 17.493 14.507 32 32 32s32-14.507 32-32v-469.333c0-17.493-14.507-32-32-32zM213.333-10.667c-17.493 0-32 14.507-32 32v469.333c0 17.493 14.507 32 32 32s32-14.507 32-32v-469.333c0-17.493-14.507-32-32-32zM213.333 629.333c-17.493 0-32 14.507-32 32v213.333c0 17.493 14.507 32 32 32s32-14.507 32-32v-213.333c0-17.493-14.507-32-32-32zM298.667 458.667h-170.667c-17.493 0-32 14.507-32 32s14.507 32 32 32h170.667c17.493 0 32-14.507 32-32s-14.507-32-32-32zM896 458.667h-170.667c-17.493 0-32 14.507-32 32s14.507 32 32 32h170.667c17.493 0 32-14.507 32-32s-14.507-32-32-32zM597.333 373.333h-170.667c-17.493 0-32 14.507-32 32s14.507 32 32 32h170.667c17.493 0 32-14.507 32-32s-14.507-32-32-32z" />
<glyph unicode="&#xe944;" glyph-name="arrange-square-2" d="M640-10.667h-256c-231.68 0-330.667 98.987-330.667 330.667v256c0 231.68 98.987 330.667 330.667 330.667h256c231.68 0 330.667-98.987 330.667-330.667v-256c0-231.68-98.987-330.667-330.667-330.667zM384 842.667c-196.693 0-266.667-69.973-266.667-266.667v-256c0-196.693 69.973-266.667 266.667-266.667h256c196.693 0 266.667 69.973 266.667 266.667v256c0 196.693-69.973 266.667-266.667 266.667h-256zM434.351 196.267c-8.108 0-16.214 2.987-22.614 9.387l-129.707 129.707c-12.373 12.373-12.373 32.853 0 45.227s32.853 12.373 45.227 0l129.708-129.707c12.373-12.373 12.373-32.853 0-45.227-5.973-6.4-14.080-9.387-22.613-9.387zM434.334 196.262c-17.494 0-32 14.507-32 32v439.467c0 17.493 14.507 32 32 32s32-14.507 32-32v-439.893c0-17.493-14.080-31.573-32-31.573zM719.351 506.027c-8.107 0-16.213 2.987-22.613 9.387l-129.707 129.705c-12.373 12.373-12.373 32.853 0 45.227s32.853 12.373 45.227 0l129.707-129.707c12.373-12.373 12.373-32.852 0-45.225-6.4-5.973-14.507-9.387-22.613-9.387zM589.666 196.262c-17.493 0-32 14.507-32 32v439.467c0 17.493 14.507 32 32 32s32-14.507 32-32v-439.893c0-17.493-14.507-31.573-32-31.573z" />
<glyph unicode="&#xe945;" glyph-name="search-normal-1" d="M490.667 32c-241.067 0-437.333 196.267-437.333 437.333s196.267 437.333 437.333 437.333c241.067 0 437.333-196.267 437.333-437.333s-196.267-437.333-437.333-437.333zM490.667 842.667c-206.080 0-373.333-167.68-373.333-373.333s167.253-373.333 373.333-373.333c206.080 0 373.333 167.68 373.333 373.333s-167.253 373.333-373.333 373.333zM938.684-10.662c-8.107 0-16.213 2.987-22.613 9.387l-85.333 85.333c-12.373 12.373-12.373 32.853 0 45.227s32.853 12.373 45.227 0l85.333-85.333c12.373-12.373 12.373-32.853 0-45.227-6.4-6.4-14.507-9.387-22.613-9.387z" />
<glyph unicode="&#xe946;" glyph-name="receipt-edit" d="M449.69 23.893c-9.813 0-19.204 4.267-25.603 12.8l-43.094 57.6c-8.96 11.947-20.905 18.773-33.705 19.627-13.227 0.853-25.601-5.12-35.841-15.787-61.867-66.133-108.8-60.587-131.413-52.053-23.040 8.96-61.867 38.4-61.867 133.12v480.426c0 189.44 54.613 247.040 233.387 247.040h322.136c178.773 0 233.387-57.6 233.387-247.040v-181.76c0-17.493-14.507-32-32-32s-32 14.507-32 32v181.76c0 154.027-26.88 183.040-169.387 183.040h-322.136c-142.507 0-169.387-29.014-169.387-183.040v-480.426c0-44.8 11.093-69.547 21.333-73.387 7.68-2.987 28.588 1.28 61.014 35.84 23.467 24.747 54.186 37.973 86.186 36.267 31.573-1.707 61.44-18.347 81.492-45.227l43.52-57.6c10.667-14.080 7.68-34.133-6.4-44.8-6.4-4.693-13.222-6.4-19.622-6.4zM682.667 629.333h-341.333c-17.493 0-32 14.507-32 32s14.507 32 32 32h341.333c17.493 0 32-14.507 32-32s-14.507-32-32-32zM640 458.667h-256c-17.493 0-32 14.507-32 32s14.507 32 32 32h256c17.493 0 32-14.507 32-32s-14.507-32-32-32zM632.303 30.716c-16.213 0-31.573 5.973-42.667 17.067-13.227 13.227-19.2 32.427-16.213 52.48l8.107 57.6c2.133 14.933 11.093 32.853 21.76 43.52l151.040 151.040c20.48 20.48 40.533 31.147 62.293 33.28 26.453 2.56 52.907-8.533 77.653-33.28s35.84-50.773 33.28-77.653c-2.133-21.333-13.227-41.813-33.28-62.293l-151.040-151.040c-10.667-10.667-28.587-19.627-43.52-21.76l-57.604-8.107c-3.413-0.427-6.396-0.853-9.809-0.853zM823.876 322.129c-0.427 0-0.853 0-1.28 0-5.973-0.427-14.080-5.973-23.040-14.933l-151.040-151.040c-1.28-1.28-3.413-5.547-3.413-7.253l-7.68-53.333 53.333 7.68c1.707 0.427 5.969 2.56 7.249 3.84l151.044 151.040c8.96 9.387 14.507 17.067 14.933 23.040 0.853 8.533-7.68 18.773-14.933 26.027-6.827 6.827-16.64 14.933-25.173 14.933zM849.946 181.338c-2.987 0-5.973 0.427-8.533 1.28-56.32 15.787-101.12 60.587-116.907 116.907-4.693 17.067 5.12 34.56 22.187 39.68 17.067 4.693 34.56-5.12 39.253-22.187 9.813-34.987 37.547-62.72 72.533-72.533 17.067-4.693 26.88-22.613 22.187-39.68-3.84-14.080-16.64-23.467-30.72-23.467z" />
<glyph unicode="&#xe947;" glyph-name="electricity" d="M576 245.333h-128c-117.333 0-202.667 85.333-202.667 202.667v216.747c0 62.72 51.2 113.92 113.92 113.92h305.92c62.72 0 113.92-51.2 113.92-113.92v-216.747c-0.427-117.333-85.76-202.667-203.093-202.667zM359.254 714.667c-27.307 0-49.92-22.187-49.92-49.92v-216.747c0-69.12 42.667-138.667 138.667-138.667h128c96 0 138.667 69.547 138.667 138.667v216.747c0 27.307-22.187 49.92-49.92 49.92h-305.493zM405.333 714.667c-17.493 0-32 14.507-32 32v128c0 17.493 14.507 32 32 32s32-14.507 32-32v-128c0-17.493-14.507-32-32-32zM618.667 714.667c-17.493 0-32 14.507-32 32v128c0 17.493 14.507 32 32 32s32-14.507 32-32v-128c0-17.493-14.507-32-32-32zM512-10.667c-17.493 0-32 14.507-32 32v256c0 17.493 14.507 32 32 32s32-14.507 32-32v-256c0-17.493-14.507-32-32-32z" />
<glyph unicode="&#xe948;" glyph-name="profile-tick" d="M680.998 50.347c-8.107 0-16.213 2.987-22.613 9.387l-64.853 64.853c-12.373 12.373-12.373 32.853 0 45.227s32.853 12.373 45.227 0l42.24-42.24 107.093 107.093c12.373 12.373 32.853 12.373 45.227 0s12.373-32.853 0-45.227l-129.707-129.707c-6.4-6.4-14.507-9.387-22.613-9.387zM518.857 464.213c-1.28 0-2.133 0-3.413 0-2.133 0.427-5.12 0.427-7.68 0-123.734 3.84-217.174 101.12-217.174 221.013-0.427 58.88 22.613 114.347 64.427 156.16s97.281 65.28 156.588 65.28c122.027 0 221.44-99.413 221.44-221.44 0-119.893-93.44-216.747-212.907-221.013-0.427 0-0.853 0-1.28 0zM511.603 842.667c-42.24 0-81.493-16.64-111.361-46.080-29.44-29.867-45.653-69.12-45.653-110.933 0-85.333 66.56-154.453 151.468-157.013 2.56 0.427 8.107 0.427 13.653 0 84.053 3.84 149.333 72.533 149.333 157.013 0 86.187-70.827 157.013-157.44 157.013zM511.582-2.556c-87.042 0-169.388 22.613-231.682 64.427-59.307 39.68-91.733 93.867-91.733 152.32s32.853 112.213 91.733 151.467c127.573 85.333 334.935 85.333 462.508 0 14.507-9.813 18.773-29.867 8.96-44.373-9.813-14.933-29.867-18.773-44.373-8.96-106.24 70.827-285.442 70.827-391.682 0-40.96-27.307-63.147-61.867-63.147-98.133s22.187-71.68 63.147-98.987c51.627-34.56 121.175-53.333 195.842-53.333 17.493 0 32-14.507 32-32s-14.080-32.427-31.573-32.427z" />
<glyph unicode="&#xe949;" glyph-name="location" d="M512.038 355.418c-90.882 0-165.122 73.813-165.122 165.12 0 91.305 74.24 164.692 165.122 164.692 90.88 0 165.12-73.813 165.12-165.118 0-91.307-74.24-164.693-165.12-164.693zM512.038 621.229c-55.467 0-101.122-45.227-101.122-101.118 0-55.893 45.228-101.12 101.122-101.12s101.12 45.227 101.12 101.12c0 55.892-45.653 101.118-101.12 101.118zM511.987-11.093c-63.147 0-126.72 23.893-176.214 71.253-125.867 121.173-264.96 314.453-212.48 544.427 47.36 208.64 229.547 302.080 388.694 302.080 0 0 0 0 0.427 0 159.147 0 341.333-93.44 388.693-302.507 52.053-229.973-87.040-422.827-212.907-544-49.493-47.36-113.067-71.253-176.213-71.253zM511.987 842.667c-124.16 0-283.734-66.133-325.974-252.16-46.080-200.96 80.213-374.187 194.56-483.84 73.814-71.253 189.44-71.253 263.254 0 113.92 109.653 240.213 282.88 194.987 483.84-42.667 186.027-202.667 252.16-326.827 252.16z" />
<glyph unicode="&#xe94a;" glyph-name="bluetooth-rectangle" d="M537.6 187.311c-9.387 0-16.64 2.56-20.907 4.267-9.387 4.267-30.716 18.347-30.716 57.173v113.92l-98.136-90.027c-12.8-11.947-33.28-11.093-45.227 2.133s-11.094 33.28 2.133 45.227l139.945 128.427-139.945 128.425c-13.227 11.947-14.080 32-2.133 45.227 11.947 12.8 32.427 14.080 45.227 2.134l98.136-90.027v113.493c0 38.4 21.329 52.48 30.716 57.173 8.96 4.267 33.707 11.52 63.573-12.8l87.893-73.387c12.8-10.667 20.48-26.453 20.907-42.667s-6.4-32.426-18.773-43.519l-90.88-83.2 90.88-83.2c12.373-11.52 19.2-27.307 18.773-43.52s-8.107-32-20.907-42.667l-87.893-73.387c-16.213-15.36-31.147-19.2-42.667-19.2zM550.4 387.844v-124.587l71.258 59.307-71.258 65.28zM550.4 632.749v-124.585l71.258 65.279-71.258 59.306zM640-10.667h-256c-146.773 0-245.333 98.56-245.333 245.333v426.667c0 146.773 98.56 245.333 245.333 245.333h256c146.773 0 245.333-98.56 245.333-245.333v-426.667c0-146.773-98.56-245.333-245.333-245.333zM384 842.667c-110.080 0-181.333-71.253-181.333-181.333v-426.667c0-110.080 71.253-181.333 181.333-181.333h256c110.080 0 181.333 71.253 181.333 181.333v426.667c0 110.080-71.253 181.333-181.333 181.333h-256z" />
<glyph unicode="&#xe94b;" glyph-name="attach-square" d="M520.525 218.458c-29.867 0-60.16 11.52-82.773 34.133-22.188 22.187-34.561 51.627-34.561 82.773s12.373 61.013 34.561 82.773l60.156 60.16c12.373 12.373 32.853 12.373 45.227 0s12.373-32.853 0-45.227l-60.156-60.16c-10.24-10.24-15.787-23.467-15.787-37.547s5.547-27.733 15.787-37.547c20.907-20.907 54.613-20.907 75.52 0l94.72 94.72c54.187 54.187 54.187 142.078 0 196.265s-142.080 54.187-196.267 0l-103.256-103.252c-21.76-21.76-33.705-50.347-33.705-80.64s11.945-59.307 33.705-80.64c12.373-12.373 12.373-32.853 0-45.227s-32.853-12.373-45.226 0c-33.707 33.707-52.052 78.507-52.052 126.293s18.345 92.587 52.052 126.293l103.255 103.252c78.934 78.933 207.788 78.933 286.721 0s78.933-207.786 0-286.719l-94.72-94.72c-23.040-23.467-52.907-34.987-83.2-34.987zM640-10.667h-256c-231.68 0-330.667 98.987-330.667 330.667v256c0 231.68 98.987 330.667 330.667 330.667h256c231.68 0 330.667-98.987 330.667-330.667v-256c0-231.68-98.987-330.667-330.667-330.667zM384 842.667c-196.693 0-266.667-69.973-266.667-266.667v-256c0-196.693 69.973-266.667 266.667-266.667h256c196.693 0 266.667 69.973 266.667 266.667v256c0 196.693-69.973 266.667-266.667 266.667h-256z" />
<glyph unicode="&#xe94c;" glyph-name="personalcard" d="M725.333 32h-426.667c-188.16 0-245.333 57.173-245.333 245.333v341.333c0 188.16 57.173 245.333 245.333 245.333h426.667c188.16 0 245.333-57.173 245.333-245.333v-341.333c0-188.16-57.173-245.333-245.333-245.333zM298.667 800c-152.747 0-181.333-29.013-181.333-181.333v-341.333c0-152.32 28.587-181.333 181.333-181.333h426.667c152.747 0 181.333 29.013 181.333 181.333v341.333c0 152.32-28.587 181.333-181.333 181.333h-426.667zM810.667 586.667h-213.333c-17.493 0-32 14.507-32 32s14.507 32 32 32h213.333c17.493 0 32-14.507 32-32s-14.507-32-32-32zM810.667 416h-170.667c-17.493 0-32 14.507-32 32s14.507 32 32 32h170.667c17.493 0 32-14.507 32-32s-14.507-32-32-32zM810.667 245.333h-85.333c-17.493 0-32 14.507-32 32s14.507 32 32 32h85.333c17.493 0 32-14.507 32-32s-14.507-32-32-32zM362.685 446.298c-60.16 0-109.227 49.067-109.227 109.226s49.067 109.227 109.227 109.227c60.16 0 109.225-49.067 109.225-109.227s-49.065-109.226-109.225-109.226zM362.685 600.75c-24.747 0-45.227-20.48-45.227-45.227s20.48-45.226 45.227-45.226c24.747 0 45.227 20.48 45.227 45.226s-20.48 45.227-45.227 45.227zM511.996 231.262c-16.213 0-30.293 12.373-32 29.013-4.693 46.080-41.813 83.2-88.32 87.467-19.627 1.707-39.253 1.707-58.88 0-46.507-4.267-83.627-40.96-88.32-87.467-1.707-17.493-17.493-30.72-34.987-28.587-17.493 1.707-30.293 17.493-28.587 34.987 7.68 76.8 68.693 137.813 145.92 144.64 23.467 2.133 47.36 2.133 70.827 0 76.8-7.253 138.24-68.267 145.92-144.64 1.707-17.493-11.093-33.28-28.587-34.987-0.853-0.427-2.133-0.427-2.987-0.427z" />
<glyph unicode="&#xe94d;" glyph-name="gallery-edit" d="M384 501.333c-64.853 0-117.333 52.48-117.333 117.333s52.48 117.333 117.333 117.333c64.853 0 117.333-52.48 117.333-117.333s-52.48-117.333-117.333-117.333zM384 672c-29.44 0-53.333-23.893-53.333-53.333s23.893-53.333 53.333-53.333c29.44 0 53.333 23.893 53.333 53.333s-23.893 53.333-53.333 53.333zM640-10.667h-256c-231.68 0-330.667 98.987-330.667 330.667v256c0 231.68 98.987 330.667 330.667 330.667h170.667c17.493 0 32-14.507 32-32s-14.507-32-32-32h-170.667c-196.693 0-266.667-69.973-266.667-266.667v-256c0-196.693 69.973-266.667 266.667-266.667h256c196.693 0 266.667 69.973 266.667 266.667v213.333c0 17.493 14.507 32 32 32s32-14.507 32-32v-213.333c0-231.68-98.987-330.667-330.667-330.667zM668.625 544.003c-16.64 0-32 5.973-43.093 17.493-13.227 13.227-19.627 32.853-16.64 52.907l8.533 59.307c2.133 14.933 11.093 33.28 22.187 43.947l154.88 154.88c61.867 61.867 115.627 26.453 142.080 0 25.173-25.173 36.693-51.627 34.133-78.933-2.133-21.76-13.227-42.667-34.133-63.147l-154.88-154.88c-10.667-10.667-29.013-19.627-43.947-22.187l-59.307-8.533c-3.413-0.853-6.827-0.853-9.813-0.853zM839.292 826.883l-154.88-154.88c-1.28-1.28-3.413-5.973-3.84-8.107l-8.107-55.467 55.893 7.68c1.707 0.427 6.4 2.56 8.107 4.267l154.88 154.88c9.387 9.387 14.933 17.92 15.36 24.32 0.853 8.96-8.107 20.053-15.36 27.307-22.187 22.187-32.427 19.627-52.053 0zM891.746 698.464c-2.987 0-5.973 0.427-8.533 1.28-57.173 16.213-102.827 61.867-119.040 119.040-4.693 17.067 5.12 34.56 22.187 39.253s34.56-5.12 39.253-22.187c10.24-35.84 38.827-64.853 75.093-75.093 17.067-4.693 26.88-22.613 22.187-39.253-4.693-13.653-17.493-23.040-31.147-23.040zM113.891 119.462c-10.24 0-20.48 5.12-26.453 14.080-9.813 14.507-5.973 34.56 8.533 44.373l210.347 141.227c46.080 30.72 109.653 27.307 151.466-8.107l14.080-12.373c21.333-18.347 57.6-18.347 78.507 0l177.493 152.32c45.227 38.827 116.48 38.827 162.133 0l69.547-59.733c13.227-11.52 14.933-31.573 3.413-45.227-11.52-13.227-31.573-14.933-45.227-3.413l-69.547 59.733c-21.333 18.347-57.6 18.347-78.507 0l-177.493-152.32c-45.227-38.827-116.48-38.827-162.133 0l-14.079 12.373c-19.627 16.64-52.053 18.347-73.813 3.413l-209.92-141.227c-5.973-3.413-12.373-5.12-18.347-5.12z" />
</font>
</defs>
</svg>
